<mxfile host="app.diagrams.net" modified="2022-03-22T05:52:32.828Z" agent="5.0 (Windows NT 10.0; Win64; x64) AppleWebKit/537.36 (KHTML, like Gecko) Chrome/99.0.4844.74 Safari/537.36" etag="uhI2gIBVbXKciM_PriOj" version="16.2.7" type="github" pages="7">
  <diagram id="C5RBs43oDa-KdzZeNtuy" name="Page-1">
    <mxGraphModel dx="1422" dy="786" grid="1" gridSize="10" guides="1" tooltips="1" connect="1" arrows="1" fold="1" page="1" pageScale="1" pageWidth="827" pageHeight="1169" math="0" shadow="0">
      <root>
        <mxCell id="WIyWlLk6GJQsqaUBKTNV-0" />
        <mxCell id="WIyWlLk6GJQsqaUBKTNV-1" parent="WIyWlLk6GJQsqaUBKTNV-0" />
        <mxCell id="zkfFHV4jXpPFQw0GAbJ--0" value="Register" style="swimlane;fontStyle=2;align=center;verticalAlign=top;childLayout=stackLayout;horizontal=1;startSize=26;horizontalStack=0;resizeParent=1;resizeLast=0;collapsible=1;marginBottom=0;rounded=0;shadow=0;strokeWidth=1;" parent="WIyWlLk6GJQsqaUBKTNV-1" vertex="1">
          <mxGeometry x="50" y="80" width="190" height="194" as="geometry">
            <mxRectangle x="150" y="80" width="160" height="26" as="alternateBounds" />
          </mxGeometry>
        </mxCell>
        <mxCell id="VrmkBKvBxofh6M_z_RZV-32" value="User Id: Integer" style="text;strokeColor=none;fillColor=none;align=left;verticalAlign=middle;spacingLeft=4;spacingRight=4;overflow=hidden;points=[[0,0.5],[1,0.5]];portConstraint=eastwest;rotatable=0;" parent="zkfFHV4jXpPFQw0GAbJ--0" vertex="1">
          <mxGeometry y="26" width="190" height="30" as="geometry" />
        </mxCell>
        <mxCell id="zkfFHV4jXpPFQw0GAbJ--1" value="Name: String" style="text;align=left;verticalAlign=top;spacingLeft=4;spacingRight=4;overflow=hidden;rotatable=0;points=[[0,0.5],[1,0.5]];portConstraint=eastwest;" parent="zkfFHV4jXpPFQw0GAbJ--0" vertex="1">
          <mxGeometry y="56" width="190" height="26" as="geometry" />
        </mxCell>
        <mxCell id="zkfFHV4jXpPFQw0GAbJ--2" value="Email Address: String (Email)" style="text;align=left;verticalAlign=top;spacingLeft=4;spacingRight=4;overflow=hidden;rotatable=0;points=[[0,0.5],[1,0.5]];portConstraint=eastwest;rounded=0;shadow=0;html=0;" parent="zkfFHV4jXpPFQw0GAbJ--0" vertex="1">
          <mxGeometry y="82" width="190" height="26" as="geometry" />
        </mxCell>
        <mxCell id="zkfFHV4jXpPFQw0GAbJ--3" value="Password: String (Password)" style="text;align=left;verticalAlign=top;spacingLeft=4;spacingRight=4;overflow=hidden;rotatable=0;points=[[0,0.5],[1,0.5]];portConstraint=eastwest;rounded=0;shadow=0;html=0;" parent="zkfFHV4jXpPFQw0GAbJ--0" vertex="1">
          <mxGeometry y="108" width="190" height="26" as="geometry" />
        </mxCell>
        <mxCell id="VrmkBKvBxofh6M_z_RZV-148" value="IP Address: Float" style="text;align=left;verticalAlign=top;spacingLeft=4;spacingRight=4;overflow=hidden;rotatable=0;points=[[0,0.5],[1,0.5]];portConstraint=eastwest;rounded=0;shadow=0;html=0;" parent="zkfFHV4jXpPFQw0GAbJ--0" vertex="1">
          <mxGeometry y="134" width="190" height="26" as="geometry" />
        </mxCell>
        <mxCell id="zkfFHV4jXpPFQw0GAbJ--4" value="" style="line;html=1;strokeWidth=1;align=left;verticalAlign=middle;spacingTop=-1;spacingLeft=3;spacingRight=3;rotatable=0;labelPosition=right;points=[];portConstraint=eastwest;" parent="zkfFHV4jXpPFQw0GAbJ--0" vertex="1">
          <mxGeometry y="160" width="190" height="8" as="geometry" />
        </mxCell>
        <mxCell id="zkfFHV4jXpPFQw0GAbJ--5" value="register()" style="text;align=left;verticalAlign=top;spacingLeft=4;spacingRight=4;overflow=hidden;rotatable=0;points=[[0,0.5],[1,0.5]];portConstraint=eastwest;" parent="zkfFHV4jXpPFQw0GAbJ--0" vertex="1">
          <mxGeometry y="168" width="190" height="26" as="geometry" />
        </mxCell>
        <mxCell id="VrmkBKvBxofh6M_z_RZV-0" value="&lt;b&gt;USER AUTHENTICATION&lt;/b&gt;" style="text;html=1;resizable=0;autosize=1;align=left;verticalAlign=middle;points=[];fillColor=none;strokeColor=none;rounded=0;" parent="WIyWlLk6GJQsqaUBKTNV-1" vertex="1">
          <mxGeometry x="50" y="40" width="160" height="20" as="geometry" />
        </mxCell>
        <mxCell id="VrmkBKvBxofh6M_z_RZV-83" style="edgeStyle=orthogonalEdgeStyle;rounded=0;orthogonalLoop=1;jettySize=auto;html=1;entryX=-0.018;entryY=1.228;entryDx=0;entryDy=0;entryPerimeter=0;endArrow=classic;endFill=1;" parent="WIyWlLk6GJQsqaUBKTNV-1" source="VrmkBKvBxofh6M_z_RZV-1" target="VrmkBKvBxofh6M_z_RZV-79" edge="1">
          <mxGeometry relative="1" as="geometry">
            <Array as="points">
              <mxPoint x="430" y="850" />
              <mxPoint x="1170" y="850" />
              <mxPoint x="1170" y="165" />
            </Array>
          </mxGeometry>
        </mxCell>
        <mxCell id="VrmkBKvBxofh6M_z_RZV-92" style="edgeStyle=orthogonalEdgeStyle;rounded=0;orthogonalLoop=1;jettySize=auto;html=1;entryX=-0.016;entryY=0.1;entryDx=0;entryDy=0;entryPerimeter=0;endArrow=classic;endFill=1;" parent="WIyWlLk6GJQsqaUBKTNV-1" source="VrmkBKvBxofh6M_z_RZV-1" target="VrmkBKvBxofh6M_z_RZV-88" edge="1">
          <mxGeometry relative="1" as="geometry">
            <Array as="points">
              <mxPoint x="430" y="850" />
              <mxPoint x="1170" y="850" />
              <mxPoint x="1170" y="332" />
            </Array>
          </mxGeometry>
        </mxCell>
        <mxCell id="VrmkBKvBxofh6M_z_RZV-118" style="edgeStyle=orthogonalEdgeStyle;rounded=0;orthogonalLoop=1;jettySize=auto;html=1;entryX=0;entryY=0.5;entryDx=0;entryDy=0;endArrow=classic;endFill=1;" parent="WIyWlLk6GJQsqaUBKTNV-1" source="VrmkBKvBxofh6M_z_RZV-1" target="VrmkBKvBxofh6M_z_RZV-98" edge="1">
          <mxGeometry relative="1" as="geometry">
            <Array as="points">
              <mxPoint x="430" y="850" />
              <mxPoint x="1490" y="850" />
              <mxPoint x="1490" y="173" />
            </Array>
          </mxGeometry>
        </mxCell>
        <mxCell id="VrmkBKvBxofh6M_z_RZV-120" style="edgeStyle=orthogonalEdgeStyle;rounded=0;orthogonalLoop=1;jettySize=auto;html=1;entryX=-0.003;entryY=-0.058;entryDx=0;entryDy=0;entryPerimeter=0;endArrow=classic;endFill=1;" parent="WIyWlLk6GJQsqaUBKTNV-1" source="VrmkBKvBxofh6M_z_RZV-1" target="VrmkBKvBxofh6M_z_RZV-105" edge="1">
          <mxGeometry relative="1" as="geometry">
            <Array as="points">
              <mxPoint x="430" y="850" />
              <mxPoint x="1490" y="850" />
              <mxPoint x="1490" y="408" />
            </Array>
          </mxGeometry>
        </mxCell>
        <mxCell id="VrmkBKvBxofh6M_z_RZV-140" style="edgeStyle=orthogonalEdgeStyle;rounded=0;orthogonalLoop=1;jettySize=auto;html=1;entryX=-0.007;entryY=-0.179;entryDx=0;entryDy=0;entryPerimeter=0;endArrow=classic;endFill=1;" parent="WIyWlLk6GJQsqaUBKTNV-1" source="VrmkBKvBxofh6M_z_RZV-1" target="VrmkBKvBxofh6M_z_RZV-137" edge="1">
          <mxGeometry relative="1" as="geometry">
            <Array as="points">
              <mxPoint x="430" y="850" />
              <mxPoint x="1490" y="850" />
              <mxPoint x="1490" y="655" />
            </Array>
          </mxGeometry>
        </mxCell>
        <mxCell id="VrmkBKvBxofh6M_z_RZV-183" style="edgeStyle=orthogonalEdgeStyle;rounded=0;orthogonalLoop=1;jettySize=auto;html=1;entryX=-0.038;entryY=1.371;entryDx=0;entryDy=0;entryPerimeter=0;endArrow=classic;endFill=1;" parent="WIyWlLk6GJQsqaUBKTNV-1" source="VrmkBKvBxofh6M_z_RZV-1" target="VrmkBKvBxofh6M_z_RZV-156" edge="1">
          <mxGeometry relative="1" as="geometry">
            <Array as="points">
              <mxPoint x="430" y="850" />
              <mxPoint x="2070" y="850" />
              <mxPoint x="2070" y="171" />
            </Array>
          </mxGeometry>
        </mxCell>
        <mxCell id="VrmkBKvBxofh6M_z_RZV-1" value="Login" style="swimlane;fontStyle=2;align=center;verticalAlign=top;childLayout=stackLayout;horizontal=1;startSize=26;horizontalStack=0;resizeParent=1;resizeLast=0;collapsible=1;marginBottom=0;rounded=0;shadow=0;strokeWidth=1;" parent="WIyWlLk6GJQsqaUBKTNV-1" vertex="1">
          <mxGeometry x="280" y="80" width="190" height="168" as="geometry">
            <mxRectangle x="280" y="98" width="160" height="26" as="alternateBounds" />
          </mxGeometry>
        </mxCell>
        <mxCell id="VrmkBKvBxofh6M_z_RZV-33" value="User Id: Integer" style="text;strokeColor=none;fillColor=none;align=left;verticalAlign=middle;spacingLeft=4;spacingRight=4;overflow=hidden;points=[[0,0.5],[1,0.5]];portConstraint=eastwest;rotatable=0;" parent="VrmkBKvBxofh6M_z_RZV-1" vertex="1">
          <mxGeometry y="26" width="190" height="30" as="geometry" />
        </mxCell>
        <mxCell id="VrmkBKvBxofh6M_z_RZV-3" value="Email Address: String (Email)" style="text;align=left;verticalAlign=top;spacingLeft=4;spacingRight=4;overflow=hidden;rotatable=0;points=[[0,0.5],[1,0.5]];portConstraint=eastwest;rounded=0;shadow=0;html=0;" parent="VrmkBKvBxofh6M_z_RZV-1" vertex="1">
          <mxGeometry y="56" width="190" height="26" as="geometry" />
        </mxCell>
        <mxCell id="VrmkBKvBxofh6M_z_RZV-4" value="Password: String (Password)" style="text;align=left;verticalAlign=top;spacingLeft=4;spacingRight=4;overflow=hidden;rotatable=0;points=[[0,0.5],[1,0.5]];portConstraint=eastwest;rounded=0;shadow=0;html=0;" parent="VrmkBKvBxofh6M_z_RZV-1" vertex="1">
          <mxGeometry y="82" width="190" height="26" as="geometry" />
        </mxCell>
        <mxCell id="VrmkBKvBxofh6M_z_RZV-17" value="Login token: String" style="text;align=left;verticalAlign=top;spacingLeft=4;spacingRight=4;overflow=hidden;rotatable=0;points=[[0,0.5],[1,0.5]];portConstraint=eastwest;rounded=0;shadow=0;html=0;" parent="VrmkBKvBxofh6M_z_RZV-1" vertex="1">
          <mxGeometry y="108" width="190" height="26" as="geometry" />
        </mxCell>
        <mxCell id="VrmkBKvBxofh6M_z_RZV-5" value="" style="line;html=1;strokeWidth=1;align=left;verticalAlign=middle;spacingTop=-1;spacingLeft=3;spacingRight=3;rotatable=0;labelPosition=right;points=[];portConstraint=eastwest;" parent="VrmkBKvBxofh6M_z_RZV-1" vertex="1">
          <mxGeometry y="134" width="190" height="8" as="geometry" />
        </mxCell>
        <mxCell id="VrmkBKvBxofh6M_z_RZV-6" value="login()" style="text;align=left;verticalAlign=top;spacingLeft=4;spacingRight=4;overflow=hidden;rotatable=0;points=[[0,0.5],[1,0.5]];portConstraint=eastwest;" parent="VrmkBKvBxofh6M_z_RZV-1" vertex="1">
          <mxGeometry y="142" width="190" height="26" as="geometry" />
        </mxCell>
        <mxCell id="VrmkBKvBxofh6M_z_RZV-13" style="edgeStyle=orthogonalEdgeStyle;rounded=0;orthogonalLoop=1;jettySize=auto;html=1;entryX=0.479;entryY=1;entryDx=0;entryDy=0;entryPerimeter=0;endArrow=block;endFill=0;" parent="WIyWlLk6GJQsqaUBKTNV-1" source="VrmkBKvBxofh6M_z_RZV-7" target="zkfFHV4jXpPFQw0GAbJ--5" edge="1">
          <mxGeometry relative="1" as="geometry" />
        </mxCell>
        <mxCell id="VrmkBKvBxofh6M_z_RZV-14" style="edgeStyle=orthogonalEdgeStyle;rounded=0;orthogonalLoop=1;jettySize=auto;html=1;entryX=0.5;entryY=1;entryDx=0;entryDy=0;endArrow=block;endFill=0;" parent="WIyWlLk6GJQsqaUBKTNV-1" source="VrmkBKvBxofh6M_z_RZV-7" target="VrmkBKvBxofh6M_z_RZV-1" edge="1">
          <mxGeometry relative="1" as="geometry">
            <Array as="points">
              <mxPoint x="275" y="300" />
              <mxPoint x="375" y="300" />
            </Array>
          </mxGeometry>
        </mxCell>
        <mxCell id="VrmkBKvBxofh6M_z_RZV-7" value="Google OAuth" style="swimlane;fontStyle=2;align=center;verticalAlign=top;childLayout=stackLayout;horizontal=1;startSize=26;horizontalStack=0;resizeParent=1;resizeLast=0;collapsible=1;marginBottom=0;rounded=0;shadow=0;strokeWidth=1;" parent="WIyWlLk6GJQsqaUBKTNV-1" vertex="1">
          <mxGeometry x="180" y="321" width="190" height="138" as="geometry">
            <mxRectangle x="150" y="80" width="160" height="26" as="alternateBounds" />
          </mxGeometry>
        </mxCell>
        <mxCell id="VrmkBKvBxofh6M_z_RZV-8" value="Client ID: String" style="text;align=left;verticalAlign=top;spacingLeft=4;spacingRight=4;overflow=hidden;rotatable=0;points=[[0,0.5],[1,0.5]];portConstraint=eastwest;" parent="VrmkBKvBxofh6M_z_RZV-7" vertex="1">
          <mxGeometry y="26" width="190" height="26" as="geometry" />
        </mxCell>
        <mxCell id="VrmkBKvBxofh6M_z_RZV-9" value="Client secret: String" style="text;align=left;verticalAlign=top;spacingLeft=4;spacingRight=4;overflow=hidden;rotatable=0;points=[[0,0.5],[1,0.5]];portConstraint=eastwest;rounded=0;shadow=0;html=0;" parent="VrmkBKvBxofh6M_z_RZV-7" vertex="1">
          <mxGeometry y="52" width="190" height="26" as="geometry" />
        </mxCell>
        <mxCell id="VrmkBKvBxofh6M_z_RZV-10" value="Redirect URL: String (URL)" style="text;align=left;verticalAlign=top;spacingLeft=4;spacingRight=4;overflow=hidden;rotatable=0;points=[[0,0.5],[1,0.5]];portConstraint=eastwest;rounded=0;shadow=0;html=0;" parent="VrmkBKvBxofh6M_z_RZV-7" vertex="1">
          <mxGeometry y="78" width="190" height="26" as="geometry" />
        </mxCell>
        <mxCell id="VrmkBKvBxofh6M_z_RZV-11" value="" style="line;html=1;strokeWidth=1;align=left;verticalAlign=middle;spacingTop=-1;spacingLeft=3;spacingRight=3;rotatable=0;labelPosition=right;points=[];portConstraint=eastwest;" parent="VrmkBKvBxofh6M_z_RZV-7" vertex="1">
          <mxGeometry y="104" width="190" height="8" as="geometry" />
        </mxCell>
        <mxCell id="VrmkBKvBxofh6M_z_RZV-12" value="google_oauth2()" style="text;align=left;verticalAlign=top;spacingLeft=4;spacingRight=4;overflow=hidden;rotatable=0;points=[[0,0.5],[1,0.5]];portConstraint=eastwest;" parent="VrmkBKvBxofh6M_z_RZV-7" vertex="1">
          <mxGeometry y="112" width="190" height="26" as="geometry" />
        </mxCell>
        <mxCell id="VrmkBKvBxofh6M_z_RZV-18" value="&lt;b&gt;DISCUSSION PLATFORM&lt;/b&gt;" style="text;html=1;resizable=0;autosize=1;align=left;verticalAlign=middle;points=[];fillColor=none;strokeColor=none;rounded=0;" parent="WIyWlLk6GJQsqaUBKTNV-1" vertex="1">
          <mxGeometry x="620" y="40" width="160" height="20" as="geometry" />
        </mxCell>
        <mxCell id="VrmkBKvBxofh6M_z_RZV-19" value="Questions" style="swimlane;fontStyle=0;childLayout=stackLayout;horizontal=1;startSize=30;horizontalStack=0;resizeParent=1;resizeParentMax=0;resizeLast=0;collapsible=1;marginBottom=0;" parent="WIyWlLk6GJQsqaUBKTNV-1" vertex="1">
          <mxGeometry x="620" y="70" width="190" height="180" as="geometry" />
        </mxCell>
        <mxCell id="VrmkBKvBxofh6M_z_RZV-30" value="User Id: Integer" style="text;strokeColor=none;fillColor=none;align=left;verticalAlign=middle;spacingLeft=4;spacingRight=4;overflow=hidden;points=[[0,0.5],[1,0.5]];portConstraint=eastwest;rotatable=0;" parent="VrmkBKvBxofh6M_z_RZV-19" vertex="1">
          <mxGeometry y="30" width="190" height="30" as="geometry" />
        </mxCell>
        <mxCell id="VrmkBKvBxofh6M_z_RZV-20" value="Question ID: Integer" style="text;strokeColor=none;fillColor=none;align=left;verticalAlign=middle;spacingLeft=4;spacingRight=4;overflow=hidden;points=[[0,0.5],[1,0.5]];portConstraint=eastwest;rotatable=0;" parent="VrmkBKvBxofh6M_z_RZV-19" vertex="1">
          <mxGeometry y="60" width="190" height="30" as="geometry" />
        </mxCell>
        <mxCell id="VrmkBKvBxofh6M_z_RZV-21" value="Question Title: String" style="text;strokeColor=none;fillColor=none;align=left;verticalAlign=middle;spacingLeft=4;spacingRight=4;overflow=hidden;points=[[0,0.5],[1,0.5]];portConstraint=eastwest;rotatable=0;" parent="VrmkBKvBxofh6M_z_RZV-19" vertex="1">
          <mxGeometry y="90" width="190" height="30" as="geometry" />
        </mxCell>
        <mxCell id="VrmkBKvBxofh6M_z_RZV-22" value="Question Description: String" style="text;strokeColor=none;fillColor=none;align=left;verticalAlign=middle;spacingLeft=4;spacingRight=4;overflow=hidden;points=[[0,0.5],[1,0.5]];portConstraint=eastwest;rotatable=0;" parent="VrmkBKvBxofh6M_z_RZV-19" vertex="1">
          <mxGeometry y="120" width="190" height="30" as="geometry" />
        </mxCell>
        <mxCell id="VrmkBKvBxofh6M_z_RZV-23" value="question_repo()" style="text;strokeColor=default;fillColor=none;align=left;verticalAlign=middle;spacingLeft=4;spacingRight=4;overflow=hidden;points=[[0,0.5],[1,0.5]];portConstraint=eastwest;rotatable=0;" parent="VrmkBKvBxofh6M_z_RZV-19" vertex="1">
          <mxGeometry y="150" width="190" height="30" as="geometry" />
        </mxCell>
        <mxCell id="VrmkBKvBxofh6M_z_RZV-45" style="edgeStyle=orthogonalEdgeStyle;rounded=0;orthogonalLoop=1;jettySize=auto;html=1;endArrow=block;endFill=0;" parent="WIyWlLk6GJQsqaUBKTNV-1" source="VrmkBKvBxofh6M_z_RZV-24" target="VrmkBKvBxofh6M_z_RZV-41" edge="1">
          <mxGeometry relative="1" as="geometry" />
        </mxCell>
        <mxCell id="VrmkBKvBxofh6M_z_RZV-55" style="edgeStyle=orthogonalEdgeStyle;rounded=0;orthogonalLoop=1;jettySize=auto;html=1;entryX=0.477;entryY=1.062;entryDx=0;entryDy=0;entryPerimeter=0;endArrow=block;endFill=0;" parent="WIyWlLk6GJQsqaUBKTNV-1" source="VrmkBKvBxofh6M_z_RZV-24" target="VrmkBKvBxofh6M_z_RZV-50" edge="1">
          <mxGeometry relative="1" as="geometry">
            <Array as="points">
              <mxPoint x="1021" y="349" />
            </Array>
          </mxGeometry>
        </mxCell>
        <mxCell id="VrmkBKvBxofh6M_z_RZV-24" value="Answers" style="swimlane;fontStyle=0;childLayout=stackLayout;horizontal=1;startSize=30;horizontalStack=0;resizeParent=1;resizeParentMax=0;resizeLast=0;collapsible=1;marginBottom=0;" parent="WIyWlLk6GJQsqaUBKTNV-1" vertex="1">
          <mxGeometry x="620" y="274" width="190" height="180" as="geometry" />
        </mxCell>
        <mxCell id="VrmkBKvBxofh6M_z_RZV-29" value="User Id: Integer" style="text;strokeColor=none;fillColor=none;align=left;verticalAlign=middle;spacingLeft=4;spacingRight=4;overflow=hidden;points=[[0,0.5],[1,0.5]];portConstraint=eastwest;rotatable=0;" parent="VrmkBKvBxofh6M_z_RZV-24" vertex="1">
          <mxGeometry y="30" width="190" height="30" as="geometry" />
        </mxCell>
        <mxCell id="VrmkBKvBxofh6M_z_RZV-25" value="Answer ID: Integer" style="text;strokeColor=none;fillColor=none;align=left;verticalAlign=middle;spacingLeft=4;spacingRight=4;overflow=hidden;points=[[0,0.5],[1,0.5]];portConstraint=eastwest;rotatable=0;" parent="VrmkBKvBxofh6M_z_RZV-24" vertex="1">
          <mxGeometry y="60" width="190" height="30" as="geometry" />
        </mxCell>
        <mxCell id="VrmkBKvBxofh6M_z_RZV-27" value="Answer Description: String" style="text;strokeColor=none;fillColor=none;align=left;verticalAlign=middle;spacingLeft=4;spacingRight=4;overflow=hidden;points=[[0,0.5],[1,0.5]];portConstraint=eastwest;rotatable=0;" parent="VrmkBKvBxofh6M_z_RZV-24" vertex="1">
          <mxGeometry y="90" width="190" height="30" as="geometry" />
        </mxCell>
        <mxCell id="VrmkBKvBxofh6M_z_RZV-70" value="Attachment: String" style="text;strokeColor=none;fillColor=none;align=left;verticalAlign=middle;spacingLeft=4;spacingRight=4;overflow=hidden;points=[[0,0.5],[1,0.5]];portConstraint=eastwest;rotatable=0;" parent="VrmkBKvBxofh6M_z_RZV-24" vertex="1">
          <mxGeometry y="120" width="190" height="30" as="geometry" />
        </mxCell>
        <mxCell id="VrmkBKvBxofh6M_z_RZV-28" value="answer_repo()" style="text;strokeColor=default;fillColor=none;align=left;verticalAlign=middle;spacingLeft=4;spacingRight=4;overflow=hidden;points=[[0,0.5],[1,0.5]];portConstraint=eastwest;rotatable=0;" parent="VrmkBKvBxofh6M_z_RZV-24" vertex="1">
          <mxGeometry y="150" width="190" height="30" as="geometry" />
        </mxCell>
        <mxCell id="VrmkBKvBxofh6M_z_RZV-34" style="edgeStyle=orthogonalEdgeStyle;rounded=0;orthogonalLoop=1;jettySize=auto;html=1;entryX=0;entryY=0.5;entryDx=0;entryDy=0;endArrow=classic;endFill=1;" parent="WIyWlLk6GJQsqaUBKTNV-1" source="VrmkBKvBxofh6M_z_RZV-4" target="VrmkBKvBxofh6M_z_RZV-21" edge="1">
          <mxGeometry relative="1" as="geometry" />
        </mxCell>
        <mxCell id="VrmkBKvBxofh6M_z_RZV-35" style="edgeStyle=orthogonalEdgeStyle;rounded=0;orthogonalLoop=1;jettySize=auto;html=1;entryX=0;entryY=0.5;entryDx=0;entryDy=0;endArrow=classic;endFill=1;" parent="WIyWlLk6GJQsqaUBKTNV-1" source="VrmkBKvBxofh6M_z_RZV-4" target="VrmkBKvBxofh6M_z_RZV-25" edge="1">
          <mxGeometry relative="1" as="geometry" />
        </mxCell>
        <mxCell id="VrmkBKvBxofh6M_z_RZV-36" value="1" style="text;html=1;resizable=0;autosize=1;align=center;verticalAlign=middle;points=[];fillColor=none;strokeColor=none;rounded=0;" parent="WIyWlLk6GJQsqaUBKTNV-1" vertex="1">
          <mxGeometry x="480" y="154" width="20" height="20" as="geometry" />
        </mxCell>
        <mxCell id="VrmkBKvBxofh6M_z_RZV-37" value="N" style="text;html=1;resizable=0;autosize=1;align=center;verticalAlign=middle;points=[];fillColor=none;strokeColor=none;rounded=0;" parent="WIyWlLk6GJQsqaUBKTNV-1" vertex="1">
          <mxGeometry x="590" y="154" width="20" height="20" as="geometry" />
        </mxCell>
        <mxCell id="VrmkBKvBxofh6M_z_RZV-38" value="N" style="text;html=1;resizable=0;autosize=1;align=center;verticalAlign=middle;points=[];fillColor=none;strokeColor=none;rounded=0;" parent="WIyWlLk6GJQsqaUBKTNV-1" vertex="1">
          <mxGeometry x="590" y="320" width="20" height="20" as="geometry" />
        </mxCell>
        <mxCell id="VrmkBKvBxofh6M_z_RZV-39" value="Reply" style="swimlane;fontStyle=0;childLayout=stackLayout;horizontal=1;startSize=30;horizontalStack=0;resizeParent=1;resizeParentMax=0;resizeLast=0;collapsible=1;marginBottom=0;" parent="WIyWlLk6GJQsqaUBKTNV-1" vertex="1">
          <mxGeometry x="860" y="380" width="190" height="180" as="geometry" />
        </mxCell>
        <mxCell id="VrmkBKvBxofh6M_z_RZV-40" value="User Id: Integer" style="text;strokeColor=none;fillColor=none;align=left;verticalAlign=middle;spacingLeft=4;spacingRight=4;overflow=hidden;points=[[0,0.5],[1,0.5]];portConstraint=eastwest;rotatable=0;" parent="VrmkBKvBxofh6M_z_RZV-39" vertex="1">
          <mxGeometry y="30" width="190" height="30" as="geometry" />
        </mxCell>
        <mxCell id="VrmkBKvBxofh6M_z_RZV-41" value="Reply ID: Integer" style="text;strokeColor=none;fillColor=none;align=left;verticalAlign=middle;spacingLeft=4;spacingRight=4;overflow=hidden;points=[[0,0.5],[1,0.5]];portConstraint=eastwest;rotatable=0;" parent="VrmkBKvBxofh6M_z_RZV-39" vertex="1">
          <mxGeometry y="60" width="190" height="30" as="geometry" />
        </mxCell>
        <mxCell id="VrmkBKvBxofh6M_z_RZV-42" value="Reply Description: String" style="text;strokeColor=none;fillColor=none;align=left;verticalAlign=middle;spacingLeft=4;spacingRight=4;overflow=hidden;points=[[0,0.5],[1,0.5]];portConstraint=eastwest;rotatable=0;" parent="VrmkBKvBxofh6M_z_RZV-39" vertex="1">
          <mxGeometry y="90" width="190" height="30" as="geometry" />
        </mxCell>
        <mxCell id="VrmkBKvBxofh6M_z_RZV-71" value="Attachment: String" style="text;strokeColor=none;fillColor=none;align=left;verticalAlign=middle;spacingLeft=4;spacingRight=4;overflow=hidden;points=[[0,0.5],[1,0.5]];portConstraint=eastwest;rotatable=0;" parent="VrmkBKvBxofh6M_z_RZV-39" vertex="1">
          <mxGeometry y="120" width="190" height="30" as="geometry" />
        </mxCell>
        <mxCell id="VrmkBKvBxofh6M_z_RZV-43" value="reply_repo()" style="text;strokeColor=default;fillColor=none;align=left;verticalAlign=middle;spacingLeft=4;spacingRight=4;overflow=hidden;points=[[0,0.5],[1,0.5]];portConstraint=eastwest;rotatable=0;" parent="VrmkBKvBxofh6M_z_RZV-39" vertex="1">
          <mxGeometry y="150" width="190" height="30" as="geometry" />
        </mxCell>
        <mxCell id="VrmkBKvBxofh6M_z_RZV-46" value="Vote" style="swimlane;fontStyle=0;childLayout=stackLayout;horizontal=1;startSize=30;horizontalStack=0;resizeParent=1;resizeParentMax=0;resizeLast=0;collapsible=1;marginBottom=0;" parent="WIyWlLk6GJQsqaUBKTNV-1" vertex="1">
          <mxGeometry x="930" y="104" width="190" height="120" as="geometry" />
        </mxCell>
        <mxCell id="VrmkBKvBxofh6M_z_RZV-47" value="User Id: Integer" style="text;strokeColor=none;fillColor=none;align=left;verticalAlign=middle;spacingLeft=4;spacingRight=4;overflow=hidden;points=[[0,0.5],[1,0.5]];portConstraint=eastwest;rotatable=0;" parent="VrmkBKvBxofh6M_z_RZV-46" vertex="1">
          <mxGeometry y="30" width="190" height="30" as="geometry" />
        </mxCell>
        <mxCell id="VrmkBKvBxofh6M_z_RZV-48" value="Vote Status: Boolean" style="text;strokeColor=none;fillColor=none;align=left;verticalAlign=middle;spacingLeft=4;spacingRight=4;overflow=hidden;points=[[0,0.5],[1,0.5]];portConstraint=eastwest;rotatable=0;" parent="VrmkBKvBxofh6M_z_RZV-46" vertex="1">
          <mxGeometry y="60" width="190" height="30" as="geometry" />
        </mxCell>
        <mxCell id="VrmkBKvBxofh6M_z_RZV-50" value="vote()" style="text;strokeColor=default;fillColor=none;align=left;verticalAlign=middle;spacingLeft=4;spacingRight=4;overflow=hidden;points=[[0,0.5],[1,0.5]];portConstraint=eastwest;rotatable=0;" parent="VrmkBKvBxofh6M_z_RZV-46" vertex="1">
          <mxGeometry y="90" width="190" height="30" as="geometry" />
        </mxCell>
        <mxCell id="VrmkBKvBxofh6M_z_RZV-52" style="edgeStyle=orthogonalEdgeStyle;rounded=0;orthogonalLoop=1;jettySize=auto;html=1;entryX=0.005;entryY=0.387;entryDx=0;entryDy=0;entryPerimeter=0;endArrow=block;endFill=0;" parent="WIyWlLk6GJQsqaUBKTNV-1" source="VrmkBKvBxofh6M_z_RZV-21" target="VrmkBKvBxofh6M_z_RZV-48" edge="1">
          <mxGeometry relative="1" as="geometry" />
        </mxCell>
        <mxCell id="VrmkBKvBxofh6M_z_RZV-56" value="Post Question" style="swimlane;fontStyle=0;childLayout=stackLayout;horizontal=1;startSize=30;horizontalStack=0;resizeParent=1;resizeParentMax=0;resizeLast=0;collapsible=1;marginBottom=0;" parent="WIyWlLk6GJQsqaUBKTNV-1" vertex="1">
          <mxGeometry x="620" y="550" width="190" height="210" as="geometry" />
        </mxCell>
        <mxCell id="VrmkBKvBxofh6M_z_RZV-57" value="User Id: Integer" style="text;strokeColor=none;fillColor=none;align=left;verticalAlign=middle;spacingLeft=4;spacingRight=4;overflow=hidden;points=[[0,0.5],[1,0.5]];portConstraint=eastwest;rotatable=0;" parent="VrmkBKvBxofh6M_z_RZV-56" vertex="1">
          <mxGeometry y="30" width="190" height="30" as="geometry" />
        </mxCell>
        <mxCell id="VrmkBKvBxofh6M_z_RZV-58" value="Question ID: Integer" style="text;strokeColor=none;fillColor=none;align=left;verticalAlign=middle;spacingLeft=4;spacingRight=4;overflow=hidden;points=[[0,0.5],[1,0.5]];portConstraint=eastwest;rotatable=0;" parent="VrmkBKvBxofh6M_z_RZV-56" vertex="1">
          <mxGeometry y="60" width="190" height="30" as="geometry" />
        </mxCell>
        <mxCell id="VrmkBKvBxofh6M_z_RZV-59" value="Question Title: String" style="text;strokeColor=none;fillColor=none;align=left;verticalAlign=middle;spacingLeft=4;spacingRight=4;overflow=hidden;points=[[0,0.5],[1,0.5]];portConstraint=eastwest;rotatable=0;" parent="VrmkBKvBxofh6M_z_RZV-56" vertex="1">
          <mxGeometry y="90" width="190" height="30" as="geometry" />
        </mxCell>
        <mxCell id="VrmkBKvBxofh6M_z_RZV-60" value="Question Description: String" style="text;strokeColor=none;fillColor=none;align=left;verticalAlign=middle;spacingLeft=4;spacingRight=4;overflow=hidden;points=[[0,0.5],[1,0.5]];portConstraint=eastwest;rotatable=0;" parent="VrmkBKvBxofh6M_z_RZV-56" vertex="1">
          <mxGeometry y="120" width="190" height="30" as="geometry" />
        </mxCell>
        <mxCell id="VrmkBKvBxofh6M_z_RZV-62" value="Attachment: String" style="text;strokeColor=none;fillColor=none;align=left;verticalAlign=middle;spacingLeft=4;spacingRight=4;overflow=hidden;points=[[0,0.5],[1,0.5]];portConstraint=eastwest;rotatable=0;" parent="VrmkBKvBxofh6M_z_RZV-56" vertex="1">
          <mxGeometry y="150" width="190" height="30" as="geometry" />
        </mxCell>
        <mxCell id="VrmkBKvBxofh6M_z_RZV-61" value="post_question()" style="text;strokeColor=default;fillColor=none;align=left;verticalAlign=middle;spacingLeft=4;spacingRight=4;overflow=hidden;points=[[0,0.5],[1,0.5]];portConstraint=eastwest;rotatable=0;" parent="VrmkBKvBxofh6M_z_RZV-56" vertex="1">
          <mxGeometry y="180" width="190" height="30" as="geometry" />
        </mxCell>
        <mxCell id="VrmkBKvBxofh6M_z_RZV-74" style="edgeStyle=orthogonalEdgeStyle;rounded=0;orthogonalLoop=1;jettySize=auto;html=1;endArrow=classic;endFill=1;exitX=1;exitY=0.5;exitDx=0;exitDy=0;" parent="WIyWlLk6GJQsqaUBKTNV-1" source="VrmkBKvBxofh6M_z_RZV-4" target="VrmkBKvBxofh6M_z_RZV-59" edge="1">
          <mxGeometry relative="1" as="geometry">
            <mxPoint x="620" y="662" as="targetPoint" />
            <Array as="points">
              <mxPoint x="520" y="175" />
              <mxPoint x="520" y="662" />
            </Array>
          </mxGeometry>
        </mxCell>
        <mxCell id="VrmkBKvBxofh6M_z_RZV-75" value="N" style="text;html=1;resizable=0;autosize=1;align=center;verticalAlign=middle;points=[];fillColor=none;strokeColor=none;rounded=0;" parent="WIyWlLk6GJQsqaUBKTNV-1" vertex="1">
          <mxGeometry x="590" y="630" width="20" height="20" as="geometry" />
        </mxCell>
        <mxCell id="VrmkBKvBxofh6M_z_RZV-76" value="&lt;b&gt;BOARDS&lt;/b&gt;" style="text;html=1;resizable=0;autosize=1;align=left;verticalAlign=middle;points=[];fillColor=none;strokeColor=none;rounded=0;" parent="WIyWlLk6GJQsqaUBKTNV-1" vertex="1">
          <mxGeometry x="1220" y="40" width="70" height="20" as="geometry" />
        </mxCell>
        <mxCell id="VrmkBKvBxofh6M_z_RZV-77" value="Board" style="swimlane;fontStyle=0;childLayout=stackLayout;horizontal=1;startSize=30;horizontalStack=0;resizeParent=1;resizeParentMax=0;resizeLast=0;collapsible=1;marginBottom=0;" parent="WIyWlLk6GJQsqaUBKTNV-1" vertex="1">
          <mxGeometry x="1220" y="68" width="190" height="180" as="geometry" />
        </mxCell>
        <mxCell id="VrmkBKvBxofh6M_z_RZV-78" value="User Id: Integer" style="text;strokeColor=none;fillColor=none;align=left;verticalAlign=middle;spacingLeft=4;spacingRight=4;overflow=hidden;points=[[0,0.5],[1,0.5]];portConstraint=eastwest;rotatable=0;" parent="VrmkBKvBxofh6M_z_RZV-77" vertex="1">
          <mxGeometry y="30" width="190" height="30" as="geometry" />
        </mxCell>
        <mxCell id="VrmkBKvBxofh6M_z_RZV-79" value="Board ID: Integer" style="text;strokeColor=none;fillColor=none;align=left;verticalAlign=middle;spacingLeft=4;spacingRight=4;overflow=hidden;points=[[0,0.5],[1,0.5]];portConstraint=eastwest;rotatable=0;" parent="VrmkBKvBxofh6M_z_RZV-77" vertex="1">
          <mxGeometry y="60" width="190" height="30" as="geometry" />
        </mxCell>
        <mxCell id="VrmkBKvBxofh6M_z_RZV-80" value="Topic Id Title: Integer" style="text;strokeColor=none;fillColor=none;align=left;verticalAlign=middle;spacingLeft=4;spacingRight=4;overflow=hidden;points=[[0,0.5],[1,0.5]];portConstraint=eastwest;rotatable=0;" parent="VrmkBKvBxofh6M_z_RZV-77" vertex="1">
          <mxGeometry y="90" width="190" height="30" as="geometry" />
        </mxCell>
        <mxCell id="VrmkBKvBxofh6M_z_RZV-81" value="Topic Title: String" style="text;strokeColor=none;fillColor=none;align=left;verticalAlign=middle;spacingLeft=4;spacingRight=4;overflow=hidden;points=[[0,0.5],[1,0.5]];portConstraint=eastwest;rotatable=0;" parent="VrmkBKvBxofh6M_z_RZV-77" vertex="1">
          <mxGeometry y="120" width="190" height="30" as="geometry" />
        </mxCell>
        <mxCell id="VrmkBKvBxofh6M_z_RZV-82" value="board_repo()&#xa;topic_list()" style="text;strokeColor=default;fillColor=none;align=left;verticalAlign=middle;spacingLeft=4;spacingRight=4;overflow=hidden;points=[[0,0.5],[1,0.5]];portConstraint=eastwest;rotatable=0;" parent="VrmkBKvBxofh6M_z_RZV-77" vertex="1">
          <mxGeometry y="150" width="190" height="30" as="geometry" />
        </mxCell>
        <mxCell id="VrmkBKvBxofh6M_z_RZV-84" value="1" style="text;html=1;resizable=0;autosize=1;align=center;verticalAlign=middle;points=[];fillColor=none;strokeColor=none;rounded=0;" parent="WIyWlLk6GJQsqaUBKTNV-1" vertex="1">
          <mxGeometry x="430" y="250" width="20" height="20" as="geometry" />
        </mxCell>
        <mxCell id="VrmkBKvBxofh6M_z_RZV-85" value="N" style="text;html=1;resizable=0;autosize=1;align=center;verticalAlign=middle;points=[];fillColor=none;strokeColor=none;rounded=0;" parent="WIyWlLk6GJQsqaUBKTNV-1" vertex="1">
          <mxGeometry x="1190" y="174" width="20" height="20" as="geometry" />
        </mxCell>
        <mxCell id="VrmkBKvBxofh6M_z_RZV-86" value="News" style="swimlane;fontStyle=0;childLayout=stackLayout;horizontal=1;startSize=30;horizontalStack=0;resizeParent=1;resizeParentMax=0;resizeLast=0;collapsible=1;marginBottom=0;" parent="WIyWlLk6GJQsqaUBKTNV-1" vertex="1">
          <mxGeometry x="1220" y="269" width="190" height="120" as="geometry" />
        </mxCell>
        <mxCell id="VrmkBKvBxofh6M_z_RZV-87" value="API token: JSON" style="text;strokeColor=none;fillColor=none;align=left;verticalAlign=middle;spacingLeft=4;spacingRight=4;overflow=hidden;points=[[0,0.5],[1,0.5]];portConstraint=eastwest;rotatable=0;" parent="VrmkBKvBxofh6M_z_RZV-86" vertex="1">
          <mxGeometry y="30" width="190" height="30" as="geometry" />
        </mxCell>
        <mxCell id="VrmkBKvBxofh6M_z_RZV-88" value="News list: String" style="text;strokeColor=none;fillColor=none;align=left;verticalAlign=middle;spacingLeft=4;spacingRight=4;overflow=hidden;points=[[0,0.5],[1,0.5]];portConstraint=eastwest;rotatable=0;" parent="VrmkBKvBxofh6M_z_RZV-86" vertex="1">
          <mxGeometry y="60" width="190" height="30" as="geometry" />
        </mxCell>
        <mxCell id="VrmkBKvBxofh6M_z_RZV-91" value="news_repo()" style="text;strokeColor=default;fillColor=none;align=left;verticalAlign=middle;spacingLeft=4;spacingRight=4;overflow=hidden;points=[[0,0.5],[1,0.5]];portConstraint=eastwest;rotatable=0;" parent="VrmkBKvBxofh6M_z_RZV-86" vertex="1">
          <mxGeometry y="90" width="190" height="30" as="geometry" />
        </mxCell>
        <mxCell id="VrmkBKvBxofh6M_z_RZV-93" value="N" style="text;html=1;resizable=0;autosize=1;align=center;verticalAlign=middle;points=[];fillColor=none;strokeColor=none;rounded=0;" parent="WIyWlLk6GJQsqaUBKTNV-1" vertex="1">
          <mxGeometry x="1190" y="310" width="20" height="20" as="geometry" />
        </mxCell>
        <mxCell id="VrmkBKvBxofh6M_z_RZV-94" value="&lt;b&gt;PODCAST BASED DISCUSSION&lt;/b&gt;" style="text;html=1;resizable=0;autosize=1;align=left;verticalAlign=middle;points=[];fillColor=none;strokeColor=none;rounded=0;" parent="WIyWlLk6GJQsqaUBKTNV-1" vertex="1">
          <mxGeometry x="1540" y="40" width="200" height="20" as="geometry" />
        </mxCell>
        <mxCell id="VrmkBKvBxofh6M_z_RZV-123" style="edgeStyle=orthogonalEdgeStyle;rounded=0;orthogonalLoop=1;jettySize=auto;html=1;entryX=0;entryY=0.5;entryDx=0;entryDy=0;endArrow=block;endFill=0;" parent="WIyWlLk6GJQsqaUBKTNV-1" source="VrmkBKvBxofh6M_z_RZV-95" target="VrmkBKvBxofh6M_z_RZV-116" edge="1">
          <mxGeometry relative="1" as="geometry" />
        </mxCell>
        <mxCell id="VrmkBKvBxofh6M_z_RZV-95" value="Podcast" style="swimlane;fontStyle=0;childLayout=stackLayout;horizontal=1;startSize=30;horizontalStack=0;resizeParent=1;resizeParentMax=0;resizeLast=0;collapsible=1;marginBottom=0;" parent="WIyWlLk6GJQsqaUBKTNV-1" vertex="1">
          <mxGeometry x="1540" y="68" width="190" height="210" as="geometry" />
        </mxCell>
        <mxCell id="VrmkBKvBxofh6M_z_RZV-96" value="User Id: Integer" style="text;strokeColor=none;fillColor=none;align=left;verticalAlign=middle;spacingLeft=4;spacingRight=4;overflow=hidden;points=[[0,0.5],[1,0.5]];portConstraint=eastwest;rotatable=0;" parent="VrmkBKvBxofh6M_z_RZV-95" vertex="1">
          <mxGeometry y="30" width="190" height="30" as="geometry" />
        </mxCell>
        <mxCell id="VrmkBKvBxofh6M_z_RZV-97" value="Podcast ID: Integer" style="text;strokeColor=none;fillColor=none;align=left;verticalAlign=middle;spacingLeft=4;spacingRight=4;overflow=hidden;points=[[0,0.5],[1,0.5]];portConstraint=eastwest;rotatable=0;" parent="VrmkBKvBxofh6M_z_RZV-95" vertex="1">
          <mxGeometry y="60" width="190" height="30" as="geometry" />
        </mxCell>
        <mxCell id="VrmkBKvBxofh6M_z_RZV-98" value="Podcast Title: String" style="text;strokeColor=none;fillColor=none;align=left;verticalAlign=middle;spacingLeft=4;spacingRight=4;overflow=hidden;points=[[0,0.5],[1,0.5]];portConstraint=eastwest;rotatable=0;" parent="VrmkBKvBxofh6M_z_RZV-95" vertex="1">
          <mxGeometry y="90" width="190" height="30" as="geometry" />
        </mxCell>
        <mxCell id="VrmkBKvBxofh6M_z_RZV-99" value="Podcast Description: String" style="text;strokeColor=none;fillColor=none;align=left;verticalAlign=middle;spacingLeft=4;spacingRight=4;overflow=hidden;points=[[0,0.5],[1,0.5]];portConstraint=eastwest;rotatable=0;" parent="VrmkBKvBxofh6M_z_RZV-95" vertex="1">
          <mxGeometry y="120" width="190" height="30" as="geometry" />
        </mxCell>
        <mxCell id="VrmkBKvBxofh6M_z_RZV-101" value="Podcast URL: String" style="text;strokeColor=none;fillColor=none;align=left;verticalAlign=middle;spacingLeft=4;spacingRight=4;overflow=hidden;points=[[0,0.5],[1,0.5]];portConstraint=eastwest;rotatable=0;" parent="VrmkBKvBxofh6M_z_RZV-95" vertex="1">
          <mxGeometry y="150" width="190" height="30" as="geometry" />
        </mxCell>
        <mxCell id="VrmkBKvBxofh6M_z_RZV-100" value="podcast_repo()" style="text;strokeColor=default;fillColor=none;align=left;verticalAlign=middle;spacingLeft=4;spacingRight=4;overflow=hidden;points=[[0,0.5],[1,0.5]];portConstraint=eastwest;rotatable=0;" parent="VrmkBKvBxofh6M_z_RZV-95" vertex="1">
          <mxGeometry y="180" width="190" height="30" as="geometry" />
        </mxCell>
        <mxCell id="VrmkBKvBxofh6M_z_RZV-125" style="edgeStyle=orthogonalEdgeStyle;rounded=0;orthogonalLoop=1;jettySize=auto;html=1;entryX=0.004;entryY=0.059;entryDx=0;entryDy=0;entryPerimeter=0;endArrow=block;endFill=0;" parent="WIyWlLk6GJQsqaUBKTNV-1" source="VrmkBKvBxofh6M_z_RZV-102" target="VrmkBKvBxofh6M_z_RZV-111" edge="1">
          <mxGeometry relative="1" as="geometry" />
        </mxCell>
        <mxCell id="VrmkBKvBxofh6M_z_RZV-102" value="Answers" style="swimlane;fontStyle=0;childLayout=stackLayout;horizontal=1;startSize=30;horizontalStack=0;resizeParent=1;resizeParentMax=0;resizeLast=0;collapsible=1;marginBottom=0;" parent="WIyWlLk6GJQsqaUBKTNV-1" vertex="1">
          <mxGeometry x="1540" y="320" width="190" height="180" as="geometry" />
        </mxCell>
        <mxCell id="VrmkBKvBxofh6M_z_RZV-103" value="User Id: Integer" style="text;strokeColor=none;fillColor=none;align=left;verticalAlign=middle;spacingLeft=4;spacingRight=4;overflow=hidden;points=[[0,0.5],[1,0.5]];portConstraint=eastwest;rotatable=0;" parent="VrmkBKvBxofh6M_z_RZV-102" vertex="1">
          <mxGeometry y="30" width="190" height="30" as="geometry" />
        </mxCell>
        <mxCell id="VrmkBKvBxofh6M_z_RZV-104" value="Answer ID: Integer" style="text;strokeColor=none;fillColor=none;align=left;verticalAlign=middle;spacingLeft=4;spacingRight=4;overflow=hidden;points=[[0,0.5],[1,0.5]];portConstraint=eastwest;rotatable=0;" parent="VrmkBKvBxofh6M_z_RZV-102" vertex="1">
          <mxGeometry y="60" width="190" height="30" as="geometry" />
        </mxCell>
        <mxCell id="VrmkBKvBxofh6M_z_RZV-105" value="Answer Description: String" style="text;strokeColor=none;fillColor=none;align=left;verticalAlign=middle;spacingLeft=4;spacingRight=4;overflow=hidden;points=[[0,0.5],[1,0.5]];portConstraint=eastwest;rotatable=0;" parent="VrmkBKvBxofh6M_z_RZV-102" vertex="1">
          <mxGeometry y="90" width="190" height="30" as="geometry" />
        </mxCell>
        <mxCell id="VrmkBKvBxofh6M_z_RZV-106" value="Attachment: String" style="text;strokeColor=none;fillColor=none;align=left;verticalAlign=middle;spacingLeft=4;spacingRight=4;overflow=hidden;points=[[0,0.5],[1,0.5]];portConstraint=eastwest;rotatable=0;" parent="VrmkBKvBxofh6M_z_RZV-102" vertex="1">
          <mxGeometry y="120" width="190" height="30" as="geometry" />
        </mxCell>
        <mxCell id="VrmkBKvBxofh6M_z_RZV-107" value="answer_repo()" style="text;strokeColor=default;fillColor=none;align=left;verticalAlign=middle;spacingLeft=4;spacingRight=4;overflow=hidden;points=[[0,0.5],[1,0.5]];portConstraint=eastwest;rotatable=0;" parent="VrmkBKvBxofh6M_z_RZV-102" vertex="1">
          <mxGeometry y="150" width="190" height="30" as="geometry" />
        </mxCell>
        <mxCell id="VrmkBKvBxofh6M_z_RZV-108" value="Reply" style="swimlane;fontStyle=0;childLayout=stackLayout;horizontal=1;startSize=30;horizontalStack=0;resizeParent=1;resizeParentMax=0;resizeLast=0;collapsible=1;marginBottom=0;" parent="WIyWlLk6GJQsqaUBKTNV-1" vertex="1">
          <mxGeometry x="1790" y="310" width="190" height="180" as="geometry" />
        </mxCell>
        <mxCell id="VrmkBKvBxofh6M_z_RZV-109" value="User Id: Integer" style="text;strokeColor=none;fillColor=none;align=left;verticalAlign=middle;spacingLeft=4;spacingRight=4;overflow=hidden;points=[[0,0.5],[1,0.5]];portConstraint=eastwest;rotatable=0;" parent="VrmkBKvBxofh6M_z_RZV-108" vertex="1">
          <mxGeometry y="30" width="190" height="30" as="geometry" />
        </mxCell>
        <mxCell id="VrmkBKvBxofh6M_z_RZV-110" value="Reply ID: Integer" style="text;strokeColor=none;fillColor=none;align=left;verticalAlign=middle;spacingLeft=4;spacingRight=4;overflow=hidden;points=[[0,0.5],[1,0.5]];portConstraint=eastwest;rotatable=0;" parent="VrmkBKvBxofh6M_z_RZV-108" vertex="1">
          <mxGeometry y="60" width="190" height="30" as="geometry" />
        </mxCell>
        <mxCell id="VrmkBKvBxofh6M_z_RZV-111" value="Reply Description: String" style="text;strokeColor=none;fillColor=none;align=left;verticalAlign=middle;spacingLeft=4;spacingRight=4;overflow=hidden;points=[[0,0.5],[1,0.5]];portConstraint=eastwest;rotatable=0;" parent="VrmkBKvBxofh6M_z_RZV-108" vertex="1">
          <mxGeometry y="90" width="190" height="30" as="geometry" />
        </mxCell>
        <mxCell id="VrmkBKvBxofh6M_z_RZV-112" value="Attachment: String" style="text;strokeColor=none;fillColor=none;align=left;verticalAlign=middle;spacingLeft=4;spacingRight=4;overflow=hidden;points=[[0,0.5],[1,0.5]];portConstraint=eastwest;rotatable=0;" parent="VrmkBKvBxofh6M_z_RZV-108" vertex="1">
          <mxGeometry y="120" width="190" height="30" as="geometry" />
        </mxCell>
        <mxCell id="VrmkBKvBxofh6M_z_RZV-113" value="reply_repo()" style="text;strokeColor=default;fillColor=none;align=left;verticalAlign=middle;spacingLeft=4;spacingRight=4;overflow=hidden;points=[[0,0.5],[1,0.5]];portConstraint=eastwest;rotatable=0;" parent="VrmkBKvBxofh6M_z_RZV-108" vertex="1">
          <mxGeometry y="150" width="190" height="30" as="geometry" />
        </mxCell>
        <mxCell id="VrmkBKvBxofh6M_z_RZV-114" value="Vote" style="swimlane;fontStyle=0;childLayout=stackLayout;horizontal=1;startSize=30;horizontalStack=0;resizeParent=1;resizeParentMax=0;resizeLast=0;collapsible=1;marginBottom=0;" parent="WIyWlLk6GJQsqaUBKTNV-1" vertex="1">
          <mxGeometry x="1790" y="98" width="190" height="120" as="geometry" />
        </mxCell>
        <mxCell id="VrmkBKvBxofh6M_z_RZV-115" value="User Id: Integer" style="text;strokeColor=none;fillColor=none;align=left;verticalAlign=middle;spacingLeft=4;spacingRight=4;overflow=hidden;points=[[0,0.5],[1,0.5]];portConstraint=eastwest;rotatable=0;" parent="VrmkBKvBxofh6M_z_RZV-114" vertex="1">
          <mxGeometry y="30" width="190" height="30" as="geometry" />
        </mxCell>
        <mxCell id="VrmkBKvBxofh6M_z_RZV-116" value="Vote Status: Boolean" style="text;strokeColor=none;fillColor=none;align=left;verticalAlign=middle;spacingLeft=4;spacingRight=4;overflow=hidden;points=[[0,0.5],[1,0.5]];portConstraint=eastwest;rotatable=0;" parent="VrmkBKvBxofh6M_z_RZV-114" vertex="1">
          <mxGeometry y="60" width="190" height="30" as="geometry" />
        </mxCell>
        <mxCell id="VrmkBKvBxofh6M_z_RZV-117" value="vote()" style="text;strokeColor=default;fillColor=none;align=left;verticalAlign=middle;spacingLeft=4;spacingRight=4;overflow=hidden;points=[[0,0.5],[1,0.5]];portConstraint=eastwest;rotatable=0;" parent="VrmkBKvBxofh6M_z_RZV-114" vertex="1">
          <mxGeometry y="90" width="190" height="30" as="geometry" />
        </mxCell>
        <mxCell id="VrmkBKvBxofh6M_z_RZV-121" value="N" style="text;html=1;resizable=0;autosize=1;align=center;verticalAlign=middle;points=[];fillColor=none;strokeColor=none;rounded=0;" parent="WIyWlLk6GJQsqaUBKTNV-1" vertex="1">
          <mxGeometry x="1510" y="140" width="20" height="20" as="geometry" />
        </mxCell>
        <mxCell id="VrmkBKvBxofh6M_z_RZV-122" value="N" style="text;html=1;resizable=0;autosize=1;align=center;verticalAlign=middle;points=[];fillColor=none;strokeColor=none;rounded=0;" parent="WIyWlLk6GJQsqaUBKTNV-1" vertex="1">
          <mxGeometry x="1510" y="380" width="20" height="20" as="geometry" />
        </mxCell>
        <mxCell id="VrmkBKvBxofh6M_z_RZV-133" value="Post Podcast" style="swimlane;fontStyle=0;childLayout=stackLayout;horizontal=1;startSize=30;horizontalStack=0;resizeParent=1;resizeParentMax=0;resizeLast=0;collapsible=1;marginBottom=0;" parent="WIyWlLk6GJQsqaUBKTNV-1" vertex="1">
          <mxGeometry x="1540" y="540" width="190" height="210" as="geometry" />
        </mxCell>
        <mxCell id="VrmkBKvBxofh6M_z_RZV-134" value="User Id: Integer" style="text;strokeColor=none;fillColor=none;align=left;verticalAlign=middle;spacingLeft=4;spacingRight=4;overflow=hidden;points=[[0,0.5],[1,0.5]];portConstraint=eastwest;rotatable=0;" parent="VrmkBKvBxofh6M_z_RZV-133" vertex="1">
          <mxGeometry y="30" width="190" height="30" as="geometry" />
        </mxCell>
        <mxCell id="VrmkBKvBxofh6M_z_RZV-135" value="Podcast ID: Integer" style="text;strokeColor=none;fillColor=none;align=left;verticalAlign=middle;spacingLeft=4;spacingRight=4;overflow=hidden;points=[[0,0.5],[1,0.5]];portConstraint=eastwest;rotatable=0;" parent="VrmkBKvBxofh6M_z_RZV-133" vertex="1">
          <mxGeometry y="60" width="190" height="30" as="geometry" />
        </mxCell>
        <mxCell id="VrmkBKvBxofh6M_z_RZV-136" value="Podcast Title: String" style="text;strokeColor=none;fillColor=none;align=left;verticalAlign=middle;spacingLeft=4;spacingRight=4;overflow=hidden;points=[[0,0.5],[1,0.5]];portConstraint=eastwest;rotatable=0;" parent="VrmkBKvBxofh6M_z_RZV-133" vertex="1">
          <mxGeometry y="90" width="190" height="30" as="geometry" />
        </mxCell>
        <mxCell id="VrmkBKvBxofh6M_z_RZV-137" value="Podcast Description: String" style="text;strokeColor=none;fillColor=none;align=left;verticalAlign=middle;spacingLeft=4;spacingRight=4;overflow=hidden;points=[[0,0.5],[1,0.5]];portConstraint=eastwest;rotatable=0;" parent="VrmkBKvBxofh6M_z_RZV-133" vertex="1">
          <mxGeometry y="120" width="190" height="30" as="geometry" />
        </mxCell>
        <mxCell id="VrmkBKvBxofh6M_z_RZV-138" value="Podcast URL: String" style="text;strokeColor=none;fillColor=none;align=left;verticalAlign=middle;spacingLeft=4;spacingRight=4;overflow=hidden;points=[[0,0.5],[1,0.5]];portConstraint=eastwest;rotatable=0;" parent="VrmkBKvBxofh6M_z_RZV-133" vertex="1">
          <mxGeometry y="150" width="190" height="30" as="geometry" />
        </mxCell>
        <mxCell id="VrmkBKvBxofh6M_z_RZV-139" value="post_podcast()" style="text;strokeColor=default;fillColor=none;align=left;verticalAlign=middle;spacingLeft=4;spacingRight=4;overflow=hidden;points=[[0,0.5],[1,0.5]];portConstraint=eastwest;rotatable=0;" parent="VrmkBKvBxofh6M_z_RZV-133" vertex="1">
          <mxGeometry y="180" width="190" height="30" as="geometry" />
        </mxCell>
        <mxCell id="VrmkBKvBxofh6M_z_RZV-141" value="N" style="text;html=1;resizable=0;autosize=1;align=center;verticalAlign=middle;points=[];fillColor=none;strokeColor=none;rounded=0;" parent="WIyWlLk6GJQsqaUBKTNV-1" vertex="1">
          <mxGeometry x="1510" y="620" width="20" height="20" as="geometry" />
        </mxCell>
        <mxCell id="VrmkBKvBxofh6M_z_RZV-142" value="Region" style="swimlane;fontStyle=2;align=center;verticalAlign=top;childLayout=stackLayout;horizontal=1;startSize=26;horizontalStack=0;resizeParent=1;resizeLast=0;collapsible=1;marginBottom=0;rounded=0;shadow=0;strokeWidth=1;" parent="WIyWlLk6GJQsqaUBKTNV-1" vertex="1">
          <mxGeometry x="180" y="516" width="190" height="138" as="geometry">
            <mxRectangle x="150" y="80" width="160" height="26" as="alternateBounds" />
          </mxGeometry>
        </mxCell>
        <mxCell id="VrmkBKvBxofh6M_z_RZV-143" value="Region ID: Integer" style="text;align=left;verticalAlign=top;spacingLeft=4;spacingRight=4;overflow=hidden;rotatable=0;points=[[0,0.5],[1,0.5]];portConstraint=eastwest;" parent="VrmkBKvBxofh6M_z_RZV-142" vertex="1">
          <mxGeometry y="26" width="190" height="26" as="geometry" />
        </mxCell>
        <mxCell id="VrmkBKvBxofh6M_z_RZV-144" value="IP Address: Float" style="text;align=left;verticalAlign=top;spacingLeft=4;spacingRight=4;overflow=hidden;rotatable=0;points=[[0,0.5],[1,0.5]];portConstraint=eastwest;rounded=0;shadow=0;html=0;" parent="VrmkBKvBxofh6M_z_RZV-142" vertex="1">
          <mxGeometry y="52" width="190" height="26" as="geometry" />
        </mxCell>
        <mxCell id="VrmkBKvBxofh6M_z_RZV-145" value="Region Name: String" style="text;align=left;verticalAlign=top;spacingLeft=4;spacingRight=4;overflow=hidden;rotatable=0;points=[[0,0.5],[1,0.5]];portConstraint=eastwest;rounded=0;shadow=0;html=0;" parent="VrmkBKvBxofh6M_z_RZV-142" vertex="1">
          <mxGeometry y="78" width="190" height="26" as="geometry" />
        </mxCell>
        <mxCell id="VrmkBKvBxofh6M_z_RZV-146" value="" style="line;html=1;strokeWidth=1;align=left;verticalAlign=middle;spacingTop=-1;spacingLeft=3;spacingRight=3;rotatable=0;labelPosition=right;points=[];portConstraint=eastwest;" parent="VrmkBKvBxofh6M_z_RZV-142" vertex="1">
          <mxGeometry y="104" width="190" height="8" as="geometry" />
        </mxCell>
        <mxCell id="VrmkBKvBxofh6M_z_RZV-147" value="region()" style="text;align=left;verticalAlign=top;spacingLeft=4;spacingRight=4;overflow=hidden;rotatable=0;points=[[0,0.5],[1,0.5]];portConstraint=eastwest;" parent="VrmkBKvBxofh6M_z_RZV-142" vertex="1">
          <mxGeometry y="112" width="190" height="26" as="geometry" />
        </mxCell>
        <mxCell id="VrmkBKvBxofh6M_z_RZV-151" style="edgeStyle=orthogonalEdgeStyle;rounded=0;orthogonalLoop=1;jettySize=auto;html=1;entryX=1;entryY=0.5;entryDx=0;entryDy=0;endArrow=classic;endFill=1;" parent="WIyWlLk6GJQsqaUBKTNV-1" source="VrmkBKvBxofh6M_z_RZV-144" target="VrmkBKvBxofh6M_z_RZV-3" edge="1">
          <mxGeometry relative="1" as="geometry">
            <Array as="points">
              <mxPoint x="510" y="581" />
              <mxPoint x="510" y="149" />
            </Array>
          </mxGeometry>
        </mxCell>
        <mxCell id="VrmkBKvBxofh6M_z_RZV-152" value="1" style="text;html=1;resizable=0;autosize=1;align=center;verticalAlign=middle;points=[];fillColor=none;strokeColor=none;rounded=0;" parent="WIyWlLk6GJQsqaUBKTNV-1" vertex="1">
          <mxGeometry x="370" y="560" width="20" height="20" as="geometry" />
        </mxCell>
        <mxCell id="VrmkBKvBxofh6M_z_RZV-153" value="&lt;b&gt;CRITICAL DEBATING PLATFORM&lt;/b&gt;" style="text;html=1;resizable=0;autosize=1;align=left;verticalAlign=middle;points=[];fillColor=none;strokeColor=none;rounded=0;" parent="WIyWlLk6GJQsqaUBKTNV-1" vertex="1">
          <mxGeometry x="2130" y="40" width="210" height="20" as="geometry" />
        </mxCell>
        <mxCell id="VrmkBKvBxofh6M_z_RZV-176" style="edgeStyle=orthogonalEdgeStyle;rounded=0;orthogonalLoop=1;jettySize=auto;html=1;entryX=0.011;entryY=-0.093;entryDx=0;entryDy=0;entryPerimeter=0;endArrow=block;endFill=0;" parent="WIyWlLk6GJQsqaUBKTNV-1" source="VrmkBKvBxofh6M_z_RZV-154" target="VrmkBKvBxofh6M_z_RZV-172" edge="1">
          <mxGeometry relative="1" as="geometry" />
        </mxCell>
        <mxCell id="VrmkBKvBxofh6M_z_RZV-177" style="edgeStyle=orthogonalEdgeStyle;rounded=0;orthogonalLoop=1;jettySize=auto;html=1;entryX=-0.012;entryY=0.949;entryDx=0;entryDy=0;entryPerimeter=0;endArrow=block;endFill=0;" parent="WIyWlLk6GJQsqaUBKTNV-1" source="VrmkBKvBxofh6M_z_RZV-154" target="VrmkBKvBxofh6M_z_RZV-163" edge="1">
          <mxGeometry relative="1" as="geometry" />
        </mxCell>
        <mxCell id="VrmkBKvBxofh6M_z_RZV-154" value="Debate Topic" style="swimlane;fontStyle=0;childLayout=stackLayout;horizontal=1;startSize=30;horizontalStack=0;resizeParent=1;resizeParentMax=0;resizeLast=0;collapsible=1;marginBottom=0;" parent="WIyWlLk6GJQsqaUBKTNV-1" vertex="1">
          <mxGeometry x="2130" y="70" width="190" height="180" as="geometry" />
        </mxCell>
        <mxCell id="VrmkBKvBxofh6M_z_RZV-155" value="User Id: Integer" style="text;strokeColor=none;fillColor=none;align=left;verticalAlign=middle;spacingLeft=4;spacingRight=4;overflow=hidden;points=[[0,0.5],[1,0.5]];portConstraint=eastwest;rotatable=0;" parent="VrmkBKvBxofh6M_z_RZV-154" vertex="1">
          <mxGeometry y="30" width="190" height="30" as="geometry" />
        </mxCell>
        <mxCell id="VrmkBKvBxofh6M_z_RZV-156" value="D_Question ID: Integer" style="text;strokeColor=none;fillColor=none;align=left;verticalAlign=middle;spacingLeft=4;spacingRight=4;overflow=hidden;points=[[0,0.5],[1,0.5]];portConstraint=eastwest;rotatable=0;" parent="VrmkBKvBxofh6M_z_RZV-154" vertex="1">
          <mxGeometry y="60" width="190" height="30" as="geometry" />
        </mxCell>
        <mxCell id="VrmkBKvBxofh6M_z_RZV-157" value="D_Question Title: String" style="text;strokeColor=none;fillColor=none;align=left;verticalAlign=middle;spacingLeft=4;spacingRight=4;overflow=hidden;points=[[0,0.5],[1,0.5]];portConstraint=eastwest;rotatable=0;" parent="VrmkBKvBxofh6M_z_RZV-154" vertex="1">
          <mxGeometry y="90" width="190" height="30" as="geometry" />
        </mxCell>
        <mxCell id="VrmkBKvBxofh6M_z_RZV-158" value="D_Question Description: String" style="text;strokeColor=none;fillColor=none;align=left;verticalAlign=middle;spacingLeft=4;spacingRight=4;overflow=hidden;points=[[0,0.5],[1,0.5]];portConstraint=eastwest;rotatable=0;" parent="VrmkBKvBxofh6M_z_RZV-154" vertex="1">
          <mxGeometry y="120" width="190" height="30" as="geometry" />
        </mxCell>
        <mxCell id="VrmkBKvBxofh6M_z_RZV-160" value="debate_repo()" style="text;strokeColor=default;fillColor=none;align=left;verticalAlign=middle;spacingLeft=4;spacingRight=4;overflow=hidden;points=[[0,0.5],[1,0.5]];portConstraint=eastwest;rotatable=0;" parent="VrmkBKvBxofh6M_z_RZV-154" vertex="1">
          <mxGeometry y="150" width="190" height="30" as="geometry" />
        </mxCell>
        <mxCell id="VrmkBKvBxofh6M_z_RZV-161" value="Pro" style="swimlane;fontStyle=0;childLayout=stackLayout;horizontal=1;startSize=30;horizontalStack=0;resizeParent=1;resizeParentMax=0;resizeLast=0;collapsible=1;marginBottom=0;" parent="WIyWlLk6GJQsqaUBKTNV-1" vertex="1">
          <mxGeometry x="2380" y="72" width="190" height="210" as="geometry" />
        </mxCell>
        <mxCell id="VrmkBKvBxofh6M_z_RZV-162" value="User Id: Integer" style="text;strokeColor=none;fillColor=none;align=left;verticalAlign=middle;spacingLeft=4;spacingRight=4;overflow=hidden;points=[[0,0.5],[1,0.5]];portConstraint=eastwest;rotatable=0;" parent="VrmkBKvBxofh6M_z_RZV-161" vertex="1">
          <mxGeometry y="30" width="190" height="30" as="geometry" />
        </mxCell>
        <mxCell id="VrmkBKvBxofh6M_z_RZV-163" value="D_Pro ID: Integer" style="text;strokeColor=none;fillColor=none;align=left;verticalAlign=middle;spacingLeft=4;spacingRight=4;overflow=hidden;points=[[0,0.5],[1,0.5]];portConstraint=eastwest;rotatable=0;" parent="VrmkBKvBxofh6M_z_RZV-161" vertex="1">
          <mxGeometry y="60" width="190" height="30" as="geometry" />
        </mxCell>
        <mxCell id="VrmkBKvBxofh6M_z_RZV-164" value="D_Pro Title: String" style="text;strokeColor=none;fillColor=none;align=left;verticalAlign=middle;spacingLeft=4;spacingRight=4;overflow=hidden;points=[[0,0.5],[1,0.5]];portConstraint=eastwest;rotatable=0;" parent="VrmkBKvBxofh6M_z_RZV-161" vertex="1">
          <mxGeometry y="90" width="190" height="30" as="geometry" />
        </mxCell>
        <mxCell id="VrmkBKvBxofh6M_z_RZV-165" value="D_Pro Description: String" style="text;strokeColor=none;fillColor=none;align=left;verticalAlign=middle;spacingLeft=4;spacingRight=4;overflow=hidden;points=[[0,0.5],[1,0.5]];portConstraint=eastwest;rotatable=0;" parent="VrmkBKvBxofh6M_z_RZV-161" vertex="1">
          <mxGeometry y="120" width="190" height="30" as="geometry" />
        </mxCell>
        <mxCell id="VrmkBKvBxofh6M_z_RZV-167" value="D_Pro Flag Status: Boolean" style="text;strokeColor=none;fillColor=none;align=left;verticalAlign=middle;spacingLeft=4;spacingRight=4;overflow=hidden;points=[[0,0.5],[1,0.5]];portConstraint=eastwest;rotatable=0;" parent="VrmkBKvBxofh6M_z_RZV-161" vertex="1">
          <mxGeometry y="150" width="190" height="30" as="geometry" />
        </mxCell>
        <mxCell id="VrmkBKvBxofh6M_z_RZV-166" value="debate_pro()" style="text;strokeColor=default;fillColor=none;align=left;verticalAlign=middle;spacingLeft=4;spacingRight=4;overflow=hidden;points=[[0,0.5],[1,0.5]];portConstraint=eastwest;rotatable=0;" parent="VrmkBKvBxofh6M_z_RZV-161" vertex="1">
          <mxGeometry y="180" width="190" height="30" as="geometry" />
        </mxCell>
        <mxCell id="VrmkBKvBxofh6M_z_RZV-168" value="Con" style="swimlane;fontStyle=0;childLayout=stackLayout;horizontal=1;startSize=30;horizontalStack=0;resizeParent=1;resizeParentMax=0;resizeLast=0;collapsible=1;marginBottom=0;" parent="WIyWlLk6GJQsqaUBKTNV-1" vertex="1">
          <mxGeometry x="2380" y="305" width="190" height="210" as="geometry" />
        </mxCell>
        <mxCell id="VrmkBKvBxofh6M_z_RZV-169" value="User Id: Integer" style="text;strokeColor=none;fillColor=none;align=left;verticalAlign=middle;spacingLeft=4;spacingRight=4;overflow=hidden;points=[[0,0.5],[1,0.5]];portConstraint=eastwest;rotatable=0;" parent="VrmkBKvBxofh6M_z_RZV-168" vertex="1">
          <mxGeometry y="30" width="190" height="30" as="geometry" />
        </mxCell>
        <mxCell id="VrmkBKvBxofh6M_z_RZV-170" value="D_Con ID: Integer" style="text;strokeColor=none;fillColor=none;align=left;verticalAlign=middle;spacingLeft=4;spacingRight=4;overflow=hidden;points=[[0,0.5],[1,0.5]];portConstraint=eastwest;rotatable=0;" parent="VrmkBKvBxofh6M_z_RZV-168" vertex="1">
          <mxGeometry y="60" width="190" height="30" as="geometry" />
        </mxCell>
        <mxCell id="VrmkBKvBxofh6M_z_RZV-171" value="D_Con Title: String" style="text;strokeColor=none;fillColor=none;align=left;verticalAlign=middle;spacingLeft=4;spacingRight=4;overflow=hidden;points=[[0,0.5],[1,0.5]];portConstraint=eastwest;rotatable=0;" parent="VrmkBKvBxofh6M_z_RZV-168" vertex="1">
          <mxGeometry y="90" width="190" height="30" as="geometry" />
        </mxCell>
        <mxCell id="VrmkBKvBxofh6M_z_RZV-172" value="D_Con Description: String" style="text;strokeColor=none;fillColor=none;align=left;verticalAlign=middle;spacingLeft=4;spacingRight=4;overflow=hidden;points=[[0,0.5],[1,0.5]];portConstraint=eastwest;rotatable=0;" parent="VrmkBKvBxofh6M_z_RZV-168" vertex="1">
          <mxGeometry y="120" width="190" height="30" as="geometry" />
        </mxCell>
        <mxCell id="VrmkBKvBxofh6M_z_RZV-173" value="D_Con Flag Status: Boolean" style="text;strokeColor=none;fillColor=none;align=left;verticalAlign=middle;spacingLeft=4;spacingRight=4;overflow=hidden;points=[[0,0.5],[1,0.5]];portConstraint=eastwest;rotatable=0;" parent="VrmkBKvBxofh6M_z_RZV-168" vertex="1">
          <mxGeometry y="150" width="190" height="30" as="geometry" />
        </mxCell>
        <mxCell id="VrmkBKvBxofh6M_z_RZV-174" value="debate_pro()" style="text;strokeColor=default;fillColor=none;align=left;verticalAlign=middle;spacingLeft=4;spacingRight=4;overflow=hidden;points=[[0,0.5],[1,0.5]];portConstraint=eastwest;rotatable=0;" parent="VrmkBKvBxofh6M_z_RZV-168" vertex="1">
          <mxGeometry y="180" width="190" height="30" as="geometry" />
        </mxCell>
        <mxCell id="VrmkBKvBxofh6M_z_RZV-178" value="N" style="text;html=1;resizable=0;autosize=1;align=center;verticalAlign=middle;points=[];fillColor=none;strokeColor=none;rounded=0;" parent="WIyWlLk6GJQsqaUBKTNV-1" vertex="1">
          <mxGeometry x="2360" y="134" width="20" height="20" as="geometry" />
        </mxCell>
        <mxCell id="VrmkBKvBxofh6M_z_RZV-180" value="1" style="text;html=1;resizable=0;autosize=1;align=center;verticalAlign=middle;points=[];fillColor=none;strokeColor=none;rounded=0;" parent="WIyWlLk6GJQsqaUBKTNV-1" vertex="1">
          <mxGeometry x="2320" y="134" width="20" height="20" as="geometry" />
        </mxCell>
        <mxCell id="VrmkBKvBxofh6M_z_RZV-181" value="N" style="text;html=1;resizable=0;autosize=1;align=center;verticalAlign=middle;points=[];fillColor=none;strokeColor=none;rounded=0;" parent="WIyWlLk6GJQsqaUBKTNV-1" vertex="1">
          <mxGeometry x="2350" y="400" width="20" height="20" as="geometry" />
        </mxCell>
        <mxCell id="VrmkBKvBxofh6M_z_RZV-182" value="1" style="text;html=1;resizable=0;autosize=1;align=center;verticalAlign=middle;points=[];fillColor=none;strokeColor=none;rounded=0;" parent="WIyWlLk6GJQsqaUBKTNV-1" vertex="1">
          <mxGeometry x="2225" y="250" width="20" height="20" as="geometry" />
        </mxCell>
        <mxCell id="VrmkBKvBxofh6M_z_RZV-184" value="N" style="text;html=1;resizable=0;autosize=1;align=center;verticalAlign=middle;points=[];fillColor=none;strokeColor=none;rounded=0;" parent="WIyWlLk6GJQsqaUBKTNV-1" vertex="1">
          <mxGeometry x="2090" y="148" width="20" height="20" as="geometry" />
        </mxCell>
      </root>
    </mxGraphModel>
  </diagram>
  <diagram id="xsgEoXgqbqOEUdSpkcCE" name="MAIN TREE">
    <mxGraphModel dx="2370" dy="1310" grid="1" gridSize="10" guides="1" tooltips="1" connect="1" arrows="1" fold="1" page="1" pageScale="1" pageWidth="1920" pageHeight="1200" math="0" shadow="0">
      <root>
        <mxCell id="RIwAo2lboA_aArEe6LEp-0" />
        <mxCell id="RIwAo2lboA_aArEe6LEp-1" parent="RIwAo2lboA_aArEe6LEp-0" />
        <mxCell id="wbvVomwkIcEebeMiu9Yz-4" style="edgeStyle=orthogonalEdgeStyle;rounded=0;orthogonalLoop=1;jettySize=auto;html=1;entryX=0.558;entryY=0.041;entryDx=0;entryDy=0;entryPerimeter=0;endArrow=classic;endFill=1;" parent="RIwAo2lboA_aArEe6LEp-1" source="ZsSRcb-iLvkDc-k7TglR-0" target="wbvVomwkIcEebeMiu9Yz-0" edge="1">
          <mxGeometry relative="1" as="geometry" />
        </mxCell>
        <mxCell id="wbvVomwkIcEebeMiu9Yz-5" style="edgeStyle=orthogonalEdgeStyle;rounded=0;orthogonalLoop=1;jettySize=auto;html=1;entryX=0.5;entryY=0;entryDx=0;entryDy=0;endArrow=classic;endFill=1;" parent="RIwAo2lboA_aArEe6LEp-1" source="ZsSRcb-iLvkDc-k7TglR-0" target="wbvVomwkIcEebeMiu9Yz-1" edge="1">
          <mxGeometry relative="1" as="geometry" />
        </mxCell>
        <mxCell id="wbvVomwkIcEebeMiu9Yz-6" style="edgeStyle=orthogonalEdgeStyle;rounded=0;orthogonalLoop=1;jettySize=auto;html=1;entryX=0.5;entryY=0;entryDx=0;entryDy=0;endArrow=classic;endFill=1;" parent="RIwAo2lboA_aArEe6LEp-1" source="ZsSRcb-iLvkDc-k7TglR-0" target="wbvVomwkIcEebeMiu9Yz-2" edge="1">
          <mxGeometry relative="1" as="geometry" />
        </mxCell>
        <mxCell id="wbvVomwkIcEebeMiu9Yz-7" style="edgeStyle=orthogonalEdgeStyle;rounded=0;orthogonalLoop=1;jettySize=auto;html=1;entryX=0.5;entryY=0;entryDx=0;entryDy=0;endArrow=classic;endFill=1;" parent="RIwAo2lboA_aArEe6LEp-1" source="ZsSRcb-iLvkDc-k7TglR-0" target="wbvVomwkIcEebeMiu9Yz-3" edge="1">
          <mxGeometry relative="1" as="geometry" />
        </mxCell>
        <mxCell id="ZsSRcb-iLvkDc-k7TglR-0" value="&lt;b style=&quot;text-align: left&quot;&gt;USER AUTHENTICATION&lt;/b&gt;" style="html=1;strokeColor=default;" parent="RIwAo2lboA_aArEe6LEp-1" vertex="1">
          <mxGeometry x="530" y="40" width="175" height="50" as="geometry" />
        </mxCell>
        <mxCell id="wbvVomwkIcEebeMiu9Yz-0" value="&lt;b style=&quot;text-align: left&quot;&gt;DISCUSSION PLATFORM&lt;/b&gt;" style="html=1;strokeColor=default;" parent="RIwAo2lboA_aArEe6LEp-1" vertex="1">
          <mxGeometry x="40" y="150" width="175" height="50" as="geometry" />
        </mxCell>
        <mxCell id="wbvVomwkIcEebeMiu9Yz-9" style="edgeStyle=orthogonalEdgeStyle;rounded=0;orthogonalLoop=1;jettySize=auto;html=1;entryX=0.5;entryY=0;entryDx=0;entryDy=0;endArrow=classic;endFill=1;" parent="RIwAo2lboA_aArEe6LEp-1" source="wbvVomwkIcEebeMiu9Yz-1" target="wbvVomwkIcEebeMiu9Yz-8" edge="1">
          <mxGeometry relative="1" as="geometry" />
        </mxCell>
        <mxCell id="wbvVomwkIcEebeMiu9Yz-11" style="edgeStyle=orthogonalEdgeStyle;rounded=0;orthogonalLoop=1;jettySize=auto;html=1;endArrow=classic;endFill=1;" parent="RIwAo2lboA_aArEe6LEp-1" source="wbvVomwkIcEebeMiu9Yz-1" target="wbvVomwkIcEebeMiu9Yz-10" edge="1">
          <mxGeometry relative="1" as="geometry" />
        </mxCell>
        <mxCell id="wbvVomwkIcEebeMiu9Yz-1" value="&lt;b style=&quot;text-align: left&quot;&gt;BOARDS&lt;/b&gt;" style="html=1;strokeColor=default;" parent="RIwAo2lboA_aArEe6LEp-1" vertex="1">
          <mxGeometry x="385" y="150" width="175" height="50" as="geometry" />
        </mxCell>
        <mxCell id="wbvVomwkIcEebeMiu9Yz-2" value="&lt;b style=&quot;text-align: left&quot;&gt;PODCAST BASED DISCUSSION&lt;/b&gt;" style="html=1;strokeColor=default;" parent="RIwAo2lboA_aArEe6LEp-1" vertex="1">
          <mxGeometry x="650" y="150" width="220" height="50" as="geometry" />
        </mxCell>
        <mxCell id="wbvVomwkIcEebeMiu9Yz-3" value="&lt;b style=&quot;text-align: left&quot;&gt;CRITICAL DEBATING PLATFORM&lt;/b&gt;" style="html=1;strokeColor=default;" parent="RIwAo2lboA_aArEe6LEp-1" vertex="1">
          <mxGeometry x="1150" y="160" width="220" height="50" as="geometry" />
        </mxCell>
        <mxCell id="wbvVomwkIcEebeMiu9Yz-8" value="&lt;div style=&quot;text-align: left&quot;&gt;&lt;span&gt;&lt;b&gt;TOPIC BOARDS&lt;/b&gt;&lt;/span&gt;&lt;/div&gt;" style="html=1;strokeColor=default;" parent="RIwAo2lboA_aArEe6LEp-1" vertex="1">
          <mxGeometry x="270" y="290" width="175" height="50" as="geometry" />
        </mxCell>
        <mxCell id="wbvVomwkIcEebeMiu9Yz-10" value="&lt;div style=&quot;text-align: left&quot;&gt;&lt;span&gt;&lt;b&gt;NEWS BOARDS&lt;/b&gt;&lt;/span&gt;&lt;/div&gt;" style="html=1;strokeColor=default;" parent="RIwAo2lboA_aArEe6LEp-1" vertex="1">
          <mxGeometry x="500" y="290" width="175" height="50" as="geometry" />
        </mxCell>
        <mxCell id="wbvVomwkIcEebeMiu9Yz-36" value="1" style="text;html=1;resizable=0;autosize=1;align=center;verticalAlign=middle;points=[];fillColor=none;strokeColor=none;rounded=0;" parent="RIwAo2lboA_aArEe6LEp-1" vertex="1">
          <mxGeometry x="510" y="40" width="20" height="20" as="geometry" />
        </mxCell>
        <mxCell id="wbvVomwkIcEebeMiu9Yz-37" value="1" style="text;html=1;resizable=0;autosize=1;align=center;verticalAlign=middle;points=[];fillColor=none;strokeColor=none;rounded=0;" parent="RIwAo2lboA_aArEe6LEp-1" vertex="1">
          <mxGeometry x="617.5" y="90" width="20" height="20" as="geometry" />
        </mxCell>
        <mxCell id="wbvVomwkIcEebeMiu9Yz-38" value="1" style="text;html=1;resizable=0;autosize=1;align=center;verticalAlign=middle;points=[];fillColor=none;strokeColor=none;rounded=0;" parent="RIwAo2lboA_aArEe6LEp-1" vertex="1">
          <mxGeometry x="705" y="40" width="20" height="20" as="geometry" />
        </mxCell>
        <mxCell id="wbvVomwkIcEebeMiu9Yz-39" value="N" style="text;html=1;resizable=0;autosize=1;align=center;verticalAlign=middle;points=[];fillColor=none;strokeColor=none;rounded=0;" parent="RIwAo2lboA_aArEe6LEp-1" vertex="1">
          <mxGeometry x="1270" y="130" width="20" height="20" as="geometry" />
        </mxCell>
        <mxCell id="wbvVomwkIcEebeMiu9Yz-40" value="N" style="text;html=1;resizable=0;autosize=1;align=center;verticalAlign=middle;points=[];fillColor=none;strokeColor=none;rounded=0;" parent="RIwAo2lboA_aArEe6LEp-1" vertex="1">
          <mxGeometry x="760" y="130" width="20" height="20" as="geometry" />
        </mxCell>
        <mxCell id="wbvVomwkIcEebeMiu9Yz-41" value="N" style="text;html=1;resizable=0;autosize=1;align=center;verticalAlign=middle;points=[];fillColor=none;strokeColor=none;rounded=0;" parent="RIwAo2lboA_aArEe6LEp-1" vertex="1">
          <mxGeometry x="480" y="130" width="20" height="20" as="geometry" />
        </mxCell>
        <mxCell id="wbvVomwkIcEebeMiu9Yz-42" value="N" style="text;html=1;resizable=0;autosize=1;align=center;verticalAlign=middle;points=[];fillColor=none;strokeColor=none;rounded=0;" parent="RIwAo2lboA_aArEe6LEp-1" vertex="1">
          <mxGeometry x="140" y="130" width="20" height="20" as="geometry" />
        </mxCell>
        <mxCell id="wbvVomwkIcEebeMiu9Yz-46" value="N" style="text;html=1;resizable=0;autosize=1;align=center;verticalAlign=middle;points=[];fillColor=none;strokeColor=none;rounded=0;" parent="RIwAo2lboA_aArEe6LEp-1" vertex="1">
          <mxGeometry x="330" y="260" width="20" height="20" as="geometry" />
        </mxCell>
        <mxCell id="wbvVomwkIcEebeMiu9Yz-47" value="N" style="text;html=1;resizable=0;autosize=1;align=center;verticalAlign=middle;points=[];fillColor=none;strokeColor=none;rounded=0;" parent="RIwAo2lboA_aArEe6LEp-1" vertex="1">
          <mxGeometry x="560" y="270" width="20" height="20" as="geometry" />
        </mxCell>
      </root>
    </mxGraphModel>
  </diagram>
  <diagram id="0obBDPATJ-LA8Kic36uY" name="AUTHENTICATION">
    <mxGraphModel dx="1422" dy="786" grid="1" gridSize="10" guides="1" tooltips="1" connect="1" arrows="1" fold="1" page="1" pageScale="1" pageWidth="1920" pageHeight="1200" math="0" shadow="0">
      <root>
        <mxCell id="sxDcvPydi_Ztg8kzpCpL-0" />
        <mxCell id="sxDcvPydi_Ztg8kzpCpL-1" parent="sxDcvPydi_Ztg8kzpCpL-0" />
        <mxCell id="sxDcvPydi_Ztg8kzpCpL-2" value="Register" style="swimlane;fontStyle=2;align=center;verticalAlign=top;childLayout=stackLayout;horizontal=1;startSize=26;horizontalStack=0;resizeParent=1;resizeLast=0;collapsible=1;marginBottom=0;rounded=0;shadow=0;strokeWidth=1;" parent="sxDcvPydi_Ztg8kzpCpL-1" vertex="1">
          <mxGeometry x="50" y="80" width="190" height="194" as="geometry">
            <mxRectangle x="150" y="80" width="160" height="26" as="alternateBounds" />
          </mxGeometry>
        </mxCell>
        <mxCell id="sxDcvPydi_Ztg8kzpCpL-3" value="User Id: Integer" style="text;strokeColor=none;fillColor=none;align=left;verticalAlign=middle;spacingLeft=4;spacingRight=4;overflow=hidden;points=[[0,0.5],[1,0.5]];portConstraint=eastwest;rotatable=0;" parent="sxDcvPydi_Ztg8kzpCpL-2" vertex="1">
          <mxGeometry y="26" width="190" height="30" as="geometry" />
        </mxCell>
        <mxCell id="sxDcvPydi_Ztg8kzpCpL-4" value="Name: String" style="text;align=left;verticalAlign=top;spacingLeft=4;spacingRight=4;overflow=hidden;rotatable=0;points=[[0,0.5],[1,0.5]];portConstraint=eastwest;" parent="sxDcvPydi_Ztg8kzpCpL-2" vertex="1">
          <mxGeometry y="56" width="190" height="26" as="geometry" />
        </mxCell>
        <mxCell id="sxDcvPydi_Ztg8kzpCpL-5" value="Email Address: String (Email)" style="text;align=left;verticalAlign=top;spacingLeft=4;spacingRight=4;overflow=hidden;rotatable=0;points=[[0,0.5],[1,0.5]];portConstraint=eastwest;rounded=0;shadow=0;html=0;" parent="sxDcvPydi_Ztg8kzpCpL-2" vertex="1">
          <mxGeometry y="82" width="190" height="26" as="geometry" />
        </mxCell>
        <mxCell id="sxDcvPydi_Ztg8kzpCpL-6" value="Password: String (Password)" style="text;align=left;verticalAlign=top;spacingLeft=4;spacingRight=4;overflow=hidden;rotatable=0;points=[[0,0.5],[1,0.5]];portConstraint=eastwest;rounded=0;shadow=0;html=0;" parent="sxDcvPydi_Ztg8kzpCpL-2" vertex="1">
          <mxGeometry y="108" width="190" height="26" as="geometry" />
        </mxCell>
        <mxCell id="sxDcvPydi_Ztg8kzpCpL-7" value="IP Address: Float" style="text;align=left;verticalAlign=top;spacingLeft=4;spacingRight=4;overflow=hidden;rotatable=0;points=[[0,0.5],[1,0.5]];portConstraint=eastwest;rounded=0;shadow=0;html=0;" parent="sxDcvPydi_Ztg8kzpCpL-2" vertex="1">
          <mxGeometry y="134" width="190" height="26" as="geometry" />
        </mxCell>
        <mxCell id="sxDcvPydi_Ztg8kzpCpL-8" value="" style="line;html=1;strokeWidth=1;align=left;verticalAlign=middle;spacingTop=-1;spacingLeft=3;spacingRight=3;rotatable=0;labelPosition=right;points=[];portConstraint=eastwest;" parent="sxDcvPydi_Ztg8kzpCpL-2" vertex="1">
          <mxGeometry y="160" width="190" height="8" as="geometry" />
        </mxCell>
        <mxCell id="sxDcvPydi_Ztg8kzpCpL-9" value="register()" style="text;align=left;verticalAlign=top;spacingLeft=4;spacingRight=4;overflow=hidden;rotatable=0;points=[[0,0.5],[1,0.5]];portConstraint=eastwest;" parent="sxDcvPydi_Ztg8kzpCpL-2" vertex="1">
          <mxGeometry y="168" width="190" height="26" as="geometry" />
        </mxCell>
        <mxCell id="sxDcvPydi_Ztg8kzpCpL-10" value="&lt;b&gt;USER AUTHENTICATION&lt;/b&gt;" style="text;html=1;resizable=0;autosize=1;align=left;verticalAlign=middle;points=[];fillColor=none;strokeColor=none;rounded=0;" parent="sxDcvPydi_Ztg8kzpCpL-1" vertex="1">
          <mxGeometry x="50" y="40" width="160" height="20" as="geometry" />
        </mxCell>
        <mxCell id="sxDcvPydi_Ztg8kzpCpL-11" value="Login" style="swimlane;fontStyle=2;align=center;verticalAlign=top;childLayout=stackLayout;horizontal=1;startSize=26;horizontalStack=0;resizeParent=1;resizeLast=0;collapsible=1;marginBottom=0;rounded=0;shadow=0;strokeWidth=1;" parent="sxDcvPydi_Ztg8kzpCpL-1" vertex="1">
          <mxGeometry x="280" y="80" width="190" height="168" as="geometry">
            <mxRectangle x="280" y="98" width="160" height="26" as="alternateBounds" />
          </mxGeometry>
        </mxCell>
        <mxCell id="sxDcvPydi_Ztg8kzpCpL-12" value="User Id: Integer" style="text;strokeColor=none;fillColor=none;align=left;verticalAlign=middle;spacingLeft=4;spacingRight=4;overflow=hidden;points=[[0,0.5],[1,0.5]];portConstraint=eastwest;rotatable=0;" parent="sxDcvPydi_Ztg8kzpCpL-11" vertex="1">
          <mxGeometry y="26" width="190" height="30" as="geometry" />
        </mxCell>
        <mxCell id="sxDcvPydi_Ztg8kzpCpL-13" value="Email Address: String (Email)" style="text;align=left;verticalAlign=top;spacingLeft=4;spacingRight=4;overflow=hidden;rotatable=0;points=[[0,0.5],[1,0.5]];portConstraint=eastwest;rounded=0;shadow=0;html=0;" parent="sxDcvPydi_Ztg8kzpCpL-11" vertex="1">
          <mxGeometry y="56" width="190" height="26" as="geometry" />
        </mxCell>
        <mxCell id="sxDcvPydi_Ztg8kzpCpL-14" value="Password: String (Password)" style="text;align=left;verticalAlign=top;spacingLeft=4;spacingRight=4;overflow=hidden;rotatable=0;points=[[0,0.5],[1,0.5]];portConstraint=eastwest;rounded=0;shadow=0;html=0;" parent="sxDcvPydi_Ztg8kzpCpL-11" vertex="1">
          <mxGeometry y="82" width="190" height="26" as="geometry" />
        </mxCell>
        <mxCell id="sxDcvPydi_Ztg8kzpCpL-15" value="Login token: String" style="text;align=left;verticalAlign=top;spacingLeft=4;spacingRight=4;overflow=hidden;rotatable=0;points=[[0,0.5],[1,0.5]];portConstraint=eastwest;rounded=0;shadow=0;html=0;" parent="sxDcvPydi_Ztg8kzpCpL-11" vertex="1">
          <mxGeometry y="108" width="190" height="26" as="geometry" />
        </mxCell>
        <mxCell id="sxDcvPydi_Ztg8kzpCpL-16" value="" style="line;html=1;strokeWidth=1;align=left;verticalAlign=middle;spacingTop=-1;spacingLeft=3;spacingRight=3;rotatable=0;labelPosition=right;points=[];portConstraint=eastwest;" parent="sxDcvPydi_Ztg8kzpCpL-11" vertex="1">
          <mxGeometry y="134" width="190" height="8" as="geometry" />
        </mxCell>
        <mxCell id="sxDcvPydi_Ztg8kzpCpL-17" value="login()" style="text;align=left;verticalAlign=top;spacingLeft=4;spacingRight=4;overflow=hidden;rotatable=0;points=[[0,0.5],[1,0.5]];portConstraint=eastwest;" parent="sxDcvPydi_Ztg8kzpCpL-11" vertex="1">
          <mxGeometry y="142" width="190" height="26" as="geometry" />
        </mxCell>
        <mxCell id="sxDcvPydi_Ztg8kzpCpL-18" style="edgeStyle=orthogonalEdgeStyle;rounded=0;orthogonalLoop=1;jettySize=auto;html=1;entryX=0.479;entryY=1;entryDx=0;entryDy=0;entryPerimeter=0;endArrow=block;endFill=0;" parent="sxDcvPydi_Ztg8kzpCpL-1" source="sxDcvPydi_Ztg8kzpCpL-20" target="sxDcvPydi_Ztg8kzpCpL-9" edge="1">
          <mxGeometry relative="1" as="geometry" />
        </mxCell>
        <mxCell id="sxDcvPydi_Ztg8kzpCpL-19" style="edgeStyle=orthogonalEdgeStyle;rounded=0;orthogonalLoop=1;jettySize=auto;html=1;entryX=0.5;entryY=1;entryDx=0;entryDy=0;endArrow=block;endFill=0;" parent="sxDcvPydi_Ztg8kzpCpL-1" source="sxDcvPydi_Ztg8kzpCpL-20" target="sxDcvPydi_Ztg8kzpCpL-11" edge="1">
          <mxGeometry relative="1" as="geometry">
            <Array as="points">
              <mxPoint x="275" y="300" />
              <mxPoint x="375" y="300" />
            </Array>
          </mxGeometry>
        </mxCell>
        <mxCell id="sxDcvPydi_Ztg8kzpCpL-20" value="Google OAuth" style="swimlane;fontStyle=2;align=center;verticalAlign=top;childLayout=stackLayout;horizontal=1;startSize=26;horizontalStack=0;resizeParent=1;resizeLast=0;collapsible=1;marginBottom=0;rounded=0;shadow=0;strokeWidth=1;" parent="sxDcvPydi_Ztg8kzpCpL-1" vertex="1">
          <mxGeometry x="180" y="321" width="190" height="138" as="geometry">
            <mxRectangle x="150" y="80" width="160" height="26" as="alternateBounds" />
          </mxGeometry>
        </mxCell>
        <mxCell id="sxDcvPydi_Ztg8kzpCpL-21" value="Client ID: String" style="text;align=left;verticalAlign=top;spacingLeft=4;spacingRight=4;overflow=hidden;rotatable=0;points=[[0,0.5],[1,0.5]];portConstraint=eastwest;" parent="sxDcvPydi_Ztg8kzpCpL-20" vertex="1">
          <mxGeometry y="26" width="190" height="26" as="geometry" />
        </mxCell>
        <mxCell id="sxDcvPydi_Ztg8kzpCpL-22" value="Client secret: String" style="text;align=left;verticalAlign=top;spacingLeft=4;spacingRight=4;overflow=hidden;rotatable=0;points=[[0,0.5],[1,0.5]];portConstraint=eastwest;rounded=0;shadow=0;html=0;" parent="sxDcvPydi_Ztg8kzpCpL-20" vertex="1">
          <mxGeometry y="52" width="190" height="26" as="geometry" />
        </mxCell>
        <mxCell id="sxDcvPydi_Ztg8kzpCpL-23" value="Redirect URL: String (URL)" style="text;align=left;verticalAlign=top;spacingLeft=4;spacingRight=4;overflow=hidden;rotatable=0;points=[[0,0.5],[1,0.5]];portConstraint=eastwest;rounded=0;shadow=0;html=0;" parent="sxDcvPydi_Ztg8kzpCpL-20" vertex="1">
          <mxGeometry y="78" width="190" height="26" as="geometry" />
        </mxCell>
        <mxCell id="sxDcvPydi_Ztg8kzpCpL-24" value="" style="line;html=1;strokeWidth=1;align=left;verticalAlign=middle;spacingTop=-1;spacingLeft=3;spacingRight=3;rotatable=0;labelPosition=right;points=[];portConstraint=eastwest;" parent="sxDcvPydi_Ztg8kzpCpL-20" vertex="1">
          <mxGeometry y="104" width="190" height="8" as="geometry" />
        </mxCell>
        <mxCell id="sxDcvPydi_Ztg8kzpCpL-25" value="google_oauth2()" style="text;align=left;verticalAlign=top;spacingLeft=4;spacingRight=4;overflow=hidden;rotatable=0;points=[[0,0.5],[1,0.5]];portConstraint=eastwest;" parent="sxDcvPydi_Ztg8kzpCpL-20" vertex="1">
          <mxGeometry y="112" width="190" height="26" as="geometry" />
        </mxCell>
        <mxCell id="sxDcvPydi_Ztg8kzpCpL-26" value="1" style="text;html=1;resizable=0;autosize=1;align=center;verticalAlign=middle;points=[];fillColor=none;strokeColor=none;rounded=0;" parent="sxDcvPydi_Ztg8kzpCpL-1" vertex="1">
          <mxGeometry x="480" y="154" width="20" height="20" as="geometry" />
        </mxCell>
        <mxCell id="sxDcvPydi_Ztg8kzpCpL-27" value="1" style="text;html=1;resizable=0;autosize=1;align=center;verticalAlign=middle;points=[];fillColor=none;strokeColor=none;rounded=0;" parent="sxDcvPydi_Ztg8kzpCpL-1" vertex="1">
          <mxGeometry x="430" y="250" width="20" height="20" as="geometry" />
        </mxCell>
        <mxCell id="sxDcvPydi_Ztg8kzpCpL-28" value="Region" style="swimlane;fontStyle=2;align=center;verticalAlign=top;childLayout=stackLayout;horizontal=1;startSize=26;horizontalStack=0;resizeParent=1;resizeLast=0;collapsible=1;marginBottom=0;rounded=0;shadow=0;strokeWidth=1;" parent="sxDcvPydi_Ztg8kzpCpL-1" vertex="1">
          <mxGeometry x="180" y="516" width="190" height="138" as="geometry">
            <mxRectangle x="150" y="80" width="160" height="26" as="alternateBounds" />
          </mxGeometry>
        </mxCell>
        <mxCell id="sxDcvPydi_Ztg8kzpCpL-29" value="Region ID: Integer" style="text;align=left;verticalAlign=top;spacingLeft=4;spacingRight=4;overflow=hidden;rotatable=0;points=[[0,0.5],[1,0.5]];portConstraint=eastwest;" parent="sxDcvPydi_Ztg8kzpCpL-28" vertex="1">
          <mxGeometry y="26" width="190" height="26" as="geometry" />
        </mxCell>
        <mxCell id="sxDcvPydi_Ztg8kzpCpL-30" value="IP Address: Float" style="text;align=left;verticalAlign=top;spacingLeft=4;spacingRight=4;overflow=hidden;rotatable=0;points=[[0,0.5],[1,0.5]];portConstraint=eastwest;rounded=0;shadow=0;html=0;" parent="sxDcvPydi_Ztg8kzpCpL-28" vertex="1">
          <mxGeometry y="52" width="190" height="26" as="geometry" />
        </mxCell>
        <mxCell id="sxDcvPydi_Ztg8kzpCpL-31" value="Region Name: String" style="text;align=left;verticalAlign=top;spacingLeft=4;spacingRight=4;overflow=hidden;rotatable=0;points=[[0,0.5],[1,0.5]];portConstraint=eastwest;rounded=0;shadow=0;html=0;" parent="sxDcvPydi_Ztg8kzpCpL-28" vertex="1">
          <mxGeometry y="78" width="190" height="26" as="geometry" />
        </mxCell>
        <mxCell id="sxDcvPydi_Ztg8kzpCpL-32" value="" style="line;html=1;strokeWidth=1;align=left;verticalAlign=middle;spacingTop=-1;spacingLeft=3;spacingRight=3;rotatable=0;labelPosition=right;points=[];portConstraint=eastwest;" parent="sxDcvPydi_Ztg8kzpCpL-28" vertex="1">
          <mxGeometry y="104" width="190" height="8" as="geometry" />
        </mxCell>
        <mxCell id="sxDcvPydi_Ztg8kzpCpL-33" value="region()" style="text;align=left;verticalAlign=top;spacingLeft=4;spacingRight=4;overflow=hidden;rotatable=0;points=[[0,0.5],[1,0.5]];portConstraint=eastwest;" parent="sxDcvPydi_Ztg8kzpCpL-28" vertex="1">
          <mxGeometry y="112" width="190" height="26" as="geometry" />
        </mxCell>
        <mxCell id="sxDcvPydi_Ztg8kzpCpL-34" style="edgeStyle=orthogonalEdgeStyle;rounded=0;orthogonalLoop=1;jettySize=auto;html=1;entryX=1;entryY=0.5;entryDx=0;entryDy=0;endArrow=classic;endFill=1;" parent="sxDcvPydi_Ztg8kzpCpL-1" source="sxDcvPydi_Ztg8kzpCpL-30" target="sxDcvPydi_Ztg8kzpCpL-13" edge="1">
          <mxGeometry relative="1" as="geometry">
            <Array as="points">
              <mxPoint x="510" y="581" />
              <mxPoint x="510" y="149" />
            </Array>
          </mxGeometry>
        </mxCell>
        <mxCell id="sxDcvPydi_Ztg8kzpCpL-35" value="1" style="text;html=1;resizable=0;autosize=1;align=center;verticalAlign=middle;points=[];fillColor=none;strokeColor=none;rounded=0;" parent="sxDcvPydi_Ztg8kzpCpL-1" vertex="1">
          <mxGeometry x="370" y="560" width="20" height="20" as="geometry" />
        </mxCell>
      </root>
    </mxGraphModel>
  </diagram>
  <diagram id="nB5FYa3ZXbAeWx6C_lXf" name="DISCUSSION PLATFORM">
    <mxGraphModel dx="1422" dy="786" grid="1" gridSize="10" guides="1" tooltips="1" connect="1" arrows="1" fold="1" page="1" pageScale="1" pageWidth="1920" pageHeight="1200" math="0" shadow="0">
      <root>
        <mxCell id="OQxPIuhQbkjylrpj6a1o-0" />
        <mxCell id="OQxPIuhQbkjylrpj6a1o-1" parent="OQxPIuhQbkjylrpj6a1o-0" />
        <mxCell id="OQxPIuhQbkjylrpj6a1o-2" value="&lt;b&gt;DISCUSSION PLATFORM&lt;/b&gt;" style="text;html=1;resizable=0;autosize=1;align=left;verticalAlign=middle;points=[];fillColor=none;strokeColor=none;rounded=0;" parent="OQxPIuhQbkjylrpj6a1o-1" vertex="1">
          <mxGeometry x="40" y="40" width="160" height="20" as="geometry" />
        </mxCell>
        <mxCell id="OQxPIuhQbkjylrpj6a1o-3" value="Questions" style="swimlane;fontStyle=0;childLayout=stackLayout;horizontal=1;startSize=30;horizontalStack=0;resizeParent=1;resizeParentMax=0;resizeLast=0;collapsible=1;marginBottom=0;" parent="OQxPIuhQbkjylrpj6a1o-1" vertex="1">
          <mxGeometry x="40" y="70" width="190" height="180" as="geometry" />
        </mxCell>
        <mxCell id="OQxPIuhQbkjylrpj6a1o-4" value="User Id: Integer" style="text;strokeColor=none;fillColor=none;align=left;verticalAlign=middle;spacingLeft=4;spacingRight=4;overflow=hidden;points=[[0,0.5],[1,0.5]];portConstraint=eastwest;rotatable=0;" parent="OQxPIuhQbkjylrpj6a1o-3" vertex="1">
          <mxGeometry y="30" width="190" height="30" as="geometry" />
        </mxCell>
        <mxCell id="OQxPIuhQbkjylrpj6a1o-5" value="Question ID: Integer" style="text;strokeColor=none;fillColor=none;align=left;verticalAlign=middle;spacingLeft=4;spacingRight=4;overflow=hidden;points=[[0,0.5],[1,0.5]];portConstraint=eastwest;rotatable=0;" parent="OQxPIuhQbkjylrpj6a1o-3" vertex="1">
          <mxGeometry y="60" width="190" height="30" as="geometry" />
        </mxCell>
        <mxCell id="OQxPIuhQbkjylrpj6a1o-6" value="Question Title: String" style="text;strokeColor=none;fillColor=none;align=left;verticalAlign=middle;spacingLeft=4;spacingRight=4;overflow=hidden;points=[[0,0.5],[1,0.5]];portConstraint=eastwest;rotatable=0;" parent="OQxPIuhQbkjylrpj6a1o-3" vertex="1">
          <mxGeometry y="90" width="190" height="30" as="geometry" />
        </mxCell>
        <mxCell id="OQxPIuhQbkjylrpj6a1o-7" value="Question Description: String" style="text;strokeColor=none;fillColor=none;align=left;verticalAlign=middle;spacingLeft=4;spacingRight=4;overflow=hidden;points=[[0,0.5],[1,0.5]];portConstraint=eastwest;rotatable=0;" parent="OQxPIuhQbkjylrpj6a1o-3" vertex="1">
          <mxGeometry y="120" width="190" height="30" as="geometry" />
        </mxCell>
        <mxCell id="OQxPIuhQbkjylrpj6a1o-8" value="question_repo()" style="text;strokeColor=default;fillColor=none;align=left;verticalAlign=middle;spacingLeft=4;spacingRight=4;overflow=hidden;points=[[0,0.5],[1,0.5]];portConstraint=eastwest;rotatable=0;" parent="OQxPIuhQbkjylrpj6a1o-3" vertex="1">
          <mxGeometry y="150" width="190" height="30" as="geometry" />
        </mxCell>
        <mxCell id="OQxPIuhQbkjylrpj6a1o-9" style="edgeStyle=orthogonalEdgeStyle;rounded=0;orthogonalLoop=1;jettySize=auto;html=1;endArrow=block;endFill=0;" parent="OQxPIuhQbkjylrpj6a1o-1" source="OQxPIuhQbkjylrpj6a1o-11" target="OQxPIuhQbkjylrpj6a1o-19" edge="1">
          <mxGeometry relative="1" as="geometry" />
        </mxCell>
        <mxCell id="OQxPIuhQbkjylrpj6a1o-10" style="edgeStyle=orthogonalEdgeStyle;rounded=0;orthogonalLoop=1;jettySize=auto;html=1;entryX=0.477;entryY=1.062;entryDx=0;entryDy=0;entryPerimeter=0;endArrow=block;endFill=0;" parent="OQxPIuhQbkjylrpj6a1o-1" source="OQxPIuhQbkjylrpj6a1o-11" target="OQxPIuhQbkjylrpj6a1o-26" edge="1">
          <mxGeometry relative="1" as="geometry">
            <Array as="points">
              <mxPoint x="441" y="349" />
            </Array>
          </mxGeometry>
        </mxCell>
        <mxCell id="OQxPIuhQbkjylrpj6a1o-11" value="Answers" style="swimlane;fontStyle=0;childLayout=stackLayout;horizontal=1;startSize=30;horizontalStack=0;resizeParent=1;resizeParentMax=0;resizeLast=0;collapsible=1;marginBottom=0;" parent="OQxPIuhQbkjylrpj6a1o-1" vertex="1">
          <mxGeometry x="40" y="274" width="190" height="180" as="geometry" />
        </mxCell>
        <mxCell id="OQxPIuhQbkjylrpj6a1o-12" value="User Id: Integer" style="text;strokeColor=none;fillColor=none;align=left;verticalAlign=middle;spacingLeft=4;spacingRight=4;overflow=hidden;points=[[0,0.5],[1,0.5]];portConstraint=eastwest;rotatable=0;" parent="OQxPIuhQbkjylrpj6a1o-11" vertex="1">
          <mxGeometry y="30" width="190" height="30" as="geometry" />
        </mxCell>
        <mxCell id="OQxPIuhQbkjylrpj6a1o-13" value="Answer ID: Integer" style="text;strokeColor=none;fillColor=none;align=left;verticalAlign=middle;spacingLeft=4;spacingRight=4;overflow=hidden;points=[[0,0.5],[1,0.5]];portConstraint=eastwest;rotatable=0;" parent="OQxPIuhQbkjylrpj6a1o-11" vertex="1">
          <mxGeometry y="60" width="190" height="30" as="geometry" />
        </mxCell>
        <mxCell id="OQxPIuhQbkjylrpj6a1o-14" value="Answer Description: String" style="text;strokeColor=none;fillColor=none;align=left;verticalAlign=middle;spacingLeft=4;spacingRight=4;overflow=hidden;points=[[0,0.5],[1,0.5]];portConstraint=eastwest;rotatable=0;" parent="OQxPIuhQbkjylrpj6a1o-11" vertex="1">
          <mxGeometry y="90" width="190" height="30" as="geometry" />
        </mxCell>
        <mxCell id="OQxPIuhQbkjylrpj6a1o-15" value="Attachment: String" style="text;strokeColor=none;fillColor=none;align=left;verticalAlign=middle;spacingLeft=4;spacingRight=4;overflow=hidden;points=[[0,0.5],[1,0.5]];portConstraint=eastwest;rotatable=0;" parent="OQxPIuhQbkjylrpj6a1o-11" vertex="1">
          <mxGeometry y="120" width="190" height="30" as="geometry" />
        </mxCell>
        <mxCell id="OQxPIuhQbkjylrpj6a1o-16" value="answer_repo()" style="text;strokeColor=default;fillColor=none;align=left;verticalAlign=middle;spacingLeft=4;spacingRight=4;overflow=hidden;points=[[0,0.5],[1,0.5]];portConstraint=eastwest;rotatable=0;" parent="OQxPIuhQbkjylrpj6a1o-11" vertex="1">
          <mxGeometry y="150" width="190" height="30" as="geometry" />
        </mxCell>
        <mxCell id="OQxPIuhQbkjylrpj6a1o-17" value="Reply" style="swimlane;fontStyle=0;childLayout=stackLayout;horizontal=1;startSize=30;horizontalStack=0;resizeParent=1;resizeParentMax=0;resizeLast=0;collapsible=1;marginBottom=0;" parent="OQxPIuhQbkjylrpj6a1o-1" vertex="1">
          <mxGeometry x="280" y="380" width="190" height="180" as="geometry" />
        </mxCell>
        <mxCell id="OQxPIuhQbkjylrpj6a1o-18" value="User Id: Integer" style="text;strokeColor=none;fillColor=none;align=left;verticalAlign=middle;spacingLeft=4;spacingRight=4;overflow=hidden;points=[[0,0.5],[1,0.5]];portConstraint=eastwest;rotatable=0;" parent="OQxPIuhQbkjylrpj6a1o-17" vertex="1">
          <mxGeometry y="30" width="190" height="30" as="geometry" />
        </mxCell>
        <mxCell id="OQxPIuhQbkjylrpj6a1o-19" value="Reply ID: Integer" style="text;strokeColor=none;fillColor=none;align=left;verticalAlign=middle;spacingLeft=4;spacingRight=4;overflow=hidden;points=[[0,0.5],[1,0.5]];portConstraint=eastwest;rotatable=0;" parent="OQxPIuhQbkjylrpj6a1o-17" vertex="1">
          <mxGeometry y="60" width="190" height="30" as="geometry" />
        </mxCell>
        <mxCell id="OQxPIuhQbkjylrpj6a1o-20" value="Reply Description: String" style="text;strokeColor=none;fillColor=none;align=left;verticalAlign=middle;spacingLeft=4;spacingRight=4;overflow=hidden;points=[[0,0.5],[1,0.5]];portConstraint=eastwest;rotatable=0;" parent="OQxPIuhQbkjylrpj6a1o-17" vertex="1">
          <mxGeometry y="90" width="190" height="30" as="geometry" />
        </mxCell>
        <mxCell id="OQxPIuhQbkjylrpj6a1o-21" value="Attachment: String" style="text;strokeColor=none;fillColor=none;align=left;verticalAlign=middle;spacingLeft=4;spacingRight=4;overflow=hidden;points=[[0,0.5],[1,0.5]];portConstraint=eastwest;rotatable=0;" parent="OQxPIuhQbkjylrpj6a1o-17" vertex="1">
          <mxGeometry y="120" width="190" height="30" as="geometry" />
        </mxCell>
        <mxCell id="OQxPIuhQbkjylrpj6a1o-22" value="reply_repo()" style="text;strokeColor=default;fillColor=none;align=left;verticalAlign=middle;spacingLeft=4;spacingRight=4;overflow=hidden;points=[[0,0.5],[1,0.5]];portConstraint=eastwest;rotatable=0;" parent="OQxPIuhQbkjylrpj6a1o-17" vertex="1">
          <mxGeometry y="150" width="190" height="30" as="geometry" />
        </mxCell>
        <mxCell id="OQxPIuhQbkjylrpj6a1o-23" value="Vote" style="swimlane;fontStyle=0;childLayout=stackLayout;horizontal=1;startSize=30;horizontalStack=0;resizeParent=1;resizeParentMax=0;resizeLast=0;collapsible=1;marginBottom=0;" parent="OQxPIuhQbkjylrpj6a1o-1" vertex="1">
          <mxGeometry x="350" y="104" width="190" height="120" as="geometry" />
        </mxCell>
        <mxCell id="OQxPIuhQbkjylrpj6a1o-24" value="User Id: Integer" style="text;strokeColor=none;fillColor=none;align=left;verticalAlign=middle;spacingLeft=4;spacingRight=4;overflow=hidden;points=[[0,0.5],[1,0.5]];portConstraint=eastwest;rotatable=0;" parent="OQxPIuhQbkjylrpj6a1o-23" vertex="1">
          <mxGeometry y="30" width="190" height="30" as="geometry" />
        </mxCell>
        <mxCell id="OQxPIuhQbkjylrpj6a1o-25" value="Vote Status: Boolean" style="text;strokeColor=none;fillColor=none;align=left;verticalAlign=middle;spacingLeft=4;spacingRight=4;overflow=hidden;points=[[0,0.5],[1,0.5]];portConstraint=eastwest;rotatable=0;" parent="OQxPIuhQbkjylrpj6a1o-23" vertex="1">
          <mxGeometry y="60" width="190" height="30" as="geometry" />
        </mxCell>
        <mxCell id="OQxPIuhQbkjylrpj6a1o-26" value="vote()" style="text;strokeColor=default;fillColor=none;align=left;verticalAlign=middle;spacingLeft=4;spacingRight=4;overflow=hidden;points=[[0,0.5],[1,0.5]];portConstraint=eastwest;rotatable=0;" parent="OQxPIuhQbkjylrpj6a1o-23" vertex="1">
          <mxGeometry y="90" width="190" height="30" as="geometry" />
        </mxCell>
        <mxCell id="OQxPIuhQbkjylrpj6a1o-27" style="edgeStyle=orthogonalEdgeStyle;rounded=0;orthogonalLoop=1;jettySize=auto;html=1;entryX=0.005;entryY=0.387;entryDx=0;entryDy=0;entryPerimeter=0;endArrow=block;endFill=0;" parent="OQxPIuhQbkjylrpj6a1o-1" source="OQxPIuhQbkjylrpj6a1o-6" target="OQxPIuhQbkjylrpj6a1o-25" edge="1">
          <mxGeometry relative="1" as="geometry" />
        </mxCell>
        <mxCell id="OQxPIuhQbkjylrpj6a1o-28" value="Post Question" style="swimlane;fontStyle=0;childLayout=stackLayout;horizontal=1;startSize=30;horizontalStack=0;resizeParent=1;resizeParentMax=0;resizeLast=0;collapsible=1;marginBottom=0;" parent="OQxPIuhQbkjylrpj6a1o-1" vertex="1">
          <mxGeometry x="40" y="550" width="190" height="210" as="geometry" />
        </mxCell>
        <mxCell id="OQxPIuhQbkjylrpj6a1o-29" value="User Id: Integer" style="text;strokeColor=none;fillColor=none;align=left;verticalAlign=middle;spacingLeft=4;spacingRight=4;overflow=hidden;points=[[0,0.5],[1,0.5]];portConstraint=eastwest;rotatable=0;" parent="OQxPIuhQbkjylrpj6a1o-28" vertex="1">
          <mxGeometry y="30" width="190" height="30" as="geometry" />
        </mxCell>
        <mxCell id="OQxPIuhQbkjylrpj6a1o-30" value="Question ID: Integer" style="text;strokeColor=none;fillColor=none;align=left;verticalAlign=middle;spacingLeft=4;spacingRight=4;overflow=hidden;points=[[0,0.5],[1,0.5]];portConstraint=eastwest;rotatable=0;" parent="OQxPIuhQbkjylrpj6a1o-28" vertex="1">
          <mxGeometry y="60" width="190" height="30" as="geometry" />
        </mxCell>
        <mxCell id="OQxPIuhQbkjylrpj6a1o-31" value="Question Title: String" style="text;strokeColor=none;fillColor=none;align=left;verticalAlign=middle;spacingLeft=4;spacingRight=4;overflow=hidden;points=[[0,0.5],[1,0.5]];portConstraint=eastwest;rotatable=0;" parent="OQxPIuhQbkjylrpj6a1o-28" vertex="1">
          <mxGeometry y="90" width="190" height="30" as="geometry" />
        </mxCell>
        <mxCell id="OQxPIuhQbkjylrpj6a1o-32" value="Question Description: String" style="text;strokeColor=none;fillColor=none;align=left;verticalAlign=middle;spacingLeft=4;spacingRight=4;overflow=hidden;points=[[0,0.5],[1,0.5]];portConstraint=eastwest;rotatable=0;" parent="OQxPIuhQbkjylrpj6a1o-28" vertex="1">
          <mxGeometry y="120" width="190" height="30" as="geometry" />
        </mxCell>
        <mxCell id="OQxPIuhQbkjylrpj6a1o-33" value="Attachment: String" style="text;strokeColor=none;fillColor=none;align=left;verticalAlign=middle;spacingLeft=4;spacingRight=4;overflow=hidden;points=[[0,0.5],[1,0.5]];portConstraint=eastwest;rotatable=0;" parent="OQxPIuhQbkjylrpj6a1o-28" vertex="1">
          <mxGeometry y="150" width="190" height="30" as="geometry" />
        </mxCell>
        <mxCell id="OQxPIuhQbkjylrpj6a1o-34" value="post_question()" style="text;strokeColor=default;fillColor=none;align=left;verticalAlign=middle;spacingLeft=4;spacingRight=4;overflow=hidden;points=[[0,0.5],[1,0.5]];portConstraint=eastwest;rotatable=0;" parent="OQxPIuhQbkjylrpj6a1o-28" vertex="1">
          <mxGeometry y="180" width="190" height="30" as="geometry" />
        </mxCell>
      </root>
    </mxGraphModel>
  </diagram>
  <diagram id="Dg-ofQY53rD2Gh7FyAJ-" name="BOARDS">
    <mxGraphModel dx="1422" dy="786" grid="1" gridSize="10" guides="1" tooltips="1" connect="1" arrows="1" fold="1" page="1" pageScale="1" pageWidth="1920" pageHeight="1200" math="0" shadow="0">
      <root>
        <mxCell id="TJDcbjTLy9w9Qm6TxpAf-0" />
        <mxCell id="TJDcbjTLy9w9Qm6TxpAf-1" parent="TJDcbjTLy9w9Qm6TxpAf-0" />
        <mxCell id="TJDcbjTLy9w9Qm6TxpAf-2" value="&lt;b&gt;BOARDS&lt;/b&gt;" style="text;html=1;resizable=0;autosize=1;align=left;verticalAlign=middle;points=[];fillColor=none;strokeColor=none;rounded=0;" parent="TJDcbjTLy9w9Qm6TxpAf-1" vertex="1">
          <mxGeometry x="30" y="30" width="70" height="20" as="geometry" />
        </mxCell>
        <mxCell id="TJDcbjTLy9w9Qm6TxpAf-3" value="Board" style="swimlane;fontStyle=0;childLayout=stackLayout;horizontal=1;startSize=30;horizontalStack=0;resizeParent=1;resizeParentMax=0;resizeLast=0;collapsible=1;marginBottom=0;" parent="TJDcbjTLy9w9Qm6TxpAf-1" vertex="1">
          <mxGeometry x="30" y="58" width="190" height="180" as="geometry" />
        </mxCell>
        <mxCell id="TJDcbjTLy9w9Qm6TxpAf-4" value="User Id: Integer" style="text;strokeColor=none;fillColor=none;align=left;verticalAlign=middle;spacingLeft=4;spacingRight=4;overflow=hidden;points=[[0,0.5],[1,0.5]];portConstraint=eastwest;rotatable=0;" parent="TJDcbjTLy9w9Qm6TxpAf-3" vertex="1">
          <mxGeometry y="30" width="190" height="30" as="geometry" />
        </mxCell>
        <mxCell id="TJDcbjTLy9w9Qm6TxpAf-5" value="Board ID: Integer" style="text;strokeColor=none;fillColor=none;align=left;verticalAlign=middle;spacingLeft=4;spacingRight=4;overflow=hidden;points=[[0,0.5],[1,0.5]];portConstraint=eastwest;rotatable=0;" parent="TJDcbjTLy9w9Qm6TxpAf-3" vertex="1">
          <mxGeometry y="60" width="190" height="30" as="geometry" />
        </mxCell>
        <mxCell id="TJDcbjTLy9w9Qm6TxpAf-6" value="Topic Id Title: Integer" style="text;strokeColor=none;fillColor=none;align=left;verticalAlign=middle;spacingLeft=4;spacingRight=4;overflow=hidden;points=[[0,0.5],[1,0.5]];portConstraint=eastwest;rotatable=0;" parent="TJDcbjTLy9w9Qm6TxpAf-3" vertex="1">
          <mxGeometry y="90" width="190" height="30" as="geometry" />
        </mxCell>
        <mxCell id="TJDcbjTLy9w9Qm6TxpAf-7" value="Topic Title: String" style="text;strokeColor=none;fillColor=none;align=left;verticalAlign=middle;spacingLeft=4;spacingRight=4;overflow=hidden;points=[[0,0.5],[1,0.5]];portConstraint=eastwest;rotatable=0;" parent="TJDcbjTLy9w9Qm6TxpAf-3" vertex="1">
          <mxGeometry y="120" width="190" height="30" as="geometry" />
        </mxCell>
        <mxCell id="TJDcbjTLy9w9Qm6TxpAf-8" value="board_repo()&#xa;topic_list()" style="text;strokeColor=default;fillColor=none;align=left;verticalAlign=middle;spacingLeft=4;spacingRight=4;overflow=hidden;points=[[0,0.5],[1,0.5]];portConstraint=eastwest;rotatable=0;" parent="TJDcbjTLy9w9Qm6TxpAf-3" vertex="1">
          <mxGeometry y="150" width="190" height="30" as="geometry" />
        </mxCell>
        <mxCell id="TJDcbjTLy9w9Qm6TxpAf-10" value="News" style="swimlane;fontStyle=0;childLayout=stackLayout;horizontal=1;startSize=30;horizontalStack=0;resizeParent=1;resizeParentMax=0;resizeLast=0;collapsible=1;marginBottom=0;" parent="TJDcbjTLy9w9Qm6TxpAf-1" vertex="1">
          <mxGeometry x="260" y="58" width="190" height="120" as="geometry" />
        </mxCell>
        <mxCell id="TJDcbjTLy9w9Qm6TxpAf-11" value="API token: JSON" style="text;strokeColor=none;fillColor=none;align=left;verticalAlign=middle;spacingLeft=4;spacingRight=4;overflow=hidden;points=[[0,0.5],[1,0.5]];portConstraint=eastwest;rotatable=0;" parent="TJDcbjTLy9w9Qm6TxpAf-10" vertex="1">
          <mxGeometry y="30" width="190" height="30" as="geometry" />
        </mxCell>
        <mxCell id="TJDcbjTLy9w9Qm6TxpAf-12" value="News list: String" style="text;strokeColor=none;fillColor=none;align=left;verticalAlign=middle;spacingLeft=4;spacingRight=4;overflow=hidden;points=[[0,0.5],[1,0.5]];portConstraint=eastwest;rotatable=0;" parent="TJDcbjTLy9w9Qm6TxpAf-10" vertex="1">
          <mxGeometry y="60" width="190" height="30" as="geometry" />
        </mxCell>
        <mxCell id="TJDcbjTLy9w9Qm6TxpAf-13" value="news_repo()" style="text;strokeColor=default;fillColor=none;align=left;verticalAlign=middle;spacingLeft=4;spacingRight=4;overflow=hidden;points=[[0,0.5],[1,0.5]];portConstraint=eastwest;rotatable=0;" parent="TJDcbjTLy9w9Qm6TxpAf-10" vertex="1">
          <mxGeometry y="90" width="190" height="30" as="geometry" />
        </mxCell>
      </root>
    </mxGraphModel>
  </diagram>
  <diagram id="zEr-YjDvf5THfCen92fU" name="PODCAST BASED DISCUSSION">
    <mxGraphModel dx="1422" dy="786" grid="1" gridSize="10" guides="1" tooltips="1" connect="1" arrows="1" fold="1" page="1" pageScale="1" pageWidth="1920" pageHeight="1200" math="0" shadow="0">
      <root>
        <mxCell id="xvR5ZBjjs4Vr0Vk9CWEH-0" />
        <mxCell id="xvR5ZBjjs4Vr0Vk9CWEH-1" parent="xvR5ZBjjs4Vr0Vk9CWEH-0" />
        <mxCell id="xvR5ZBjjs4Vr0Vk9CWEH-2" value="&lt;b&gt;PODCAST BASED DISCUSSION&lt;/b&gt;" style="text;html=1;resizable=0;autosize=1;align=left;verticalAlign=middle;points=[];fillColor=none;strokeColor=none;rounded=0;" parent="xvR5ZBjjs4Vr0Vk9CWEH-1" vertex="1">
          <mxGeometry x="40" y="40" width="200" height="20" as="geometry" />
        </mxCell>
        <mxCell id="xvR5ZBjjs4Vr0Vk9CWEH-3" style="edgeStyle=orthogonalEdgeStyle;rounded=0;orthogonalLoop=1;jettySize=auto;html=1;entryX=0;entryY=0.5;entryDx=0;entryDy=0;endArrow=block;endFill=0;" parent="xvR5ZBjjs4Vr0Vk9CWEH-1" source="xvR5ZBjjs4Vr0Vk9CWEH-4" target="xvR5ZBjjs4Vr0Vk9CWEH-26" edge="1">
          <mxGeometry relative="1" as="geometry" />
        </mxCell>
        <mxCell id="xvR5ZBjjs4Vr0Vk9CWEH-4" value="Podcast" style="swimlane;fontStyle=0;childLayout=stackLayout;horizontal=1;startSize=30;horizontalStack=0;resizeParent=1;resizeParentMax=0;resizeLast=0;collapsible=1;marginBottom=0;" parent="xvR5ZBjjs4Vr0Vk9CWEH-1" vertex="1">
          <mxGeometry x="40" y="68" width="190" height="210" as="geometry" />
        </mxCell>
        <mxCell id="xvR5ZBjjs4Vr0Vk9CWEH-5" value="User Id: Integer" style="text;strokeColor=none;fillColor=none;align=left;verticalAlign=middle;spacingLeft=4;spacingRight=4;overflow=hidden;points=[[0,0.5],[1,0.5]];portConstraint=eastwest;rotatable=0;" parent="xvR5ZBjjs4Vr0Vk9CWEH-4" vertex="1">
          <mxGeometry y="30" width="190" height="30" as="geometry" />
        </mxCell>
        <mxCell id="xvR5ZBjjs4Vr0Vk9CWEH-6" value="Podcast ID: Integer" style="text;strokeColor=none;fillColor=none;align=left;verticalAlign=middle;spacingLeft=4;spacingRight=4;overflow=hidden;points=[[0,0.5],[1,0.5]];portConstraint=eastwest;rotatable=0;" parent="xvR5ZBjjs4Vr0Vk9CWEH-4" vertex="1">
          <mxGeometry y="60" width="190" height="30" as="geometry" />
        </mxCell>
        <mxCell id="xvR5ZBjjs4Vr0Vk9CWEH-7" value="Podcast Title: String" style="text;strokeColor=none;fillColor=none;align=left;verticalAlign=middle;spacingLeft=4;spacingRight=4;overflow=hidden;points=[[0,0.5],[1,0.5]];portConstraint=eastwest;rotatable=0;" parent="xvR5ZBjjs4Vr0Vk9CWEH-4" vertex="1">
          <mxGeometry y="90" width="190" height="30" as="geometry" />
        </mxCell>
        <mxCell id="xvR5ZBjjs4Vr0Vk9CWEH-8" value="Podcast Description: String" style="text;strokeColor=none;fillColor=none;align=left;verticalAlign=middle;spacingLeft=4;spacingRight=4;overflow=hidden;points=[[0,0.5],[1,0.5]];portConstraint=eastwest;rotatable=0;" parent="xvR5ZBjjs4Vr0Vk9CWEH-4" vertex="1">
          <mxGeometry y="120" width="190" height="30" as="geometry" />
        </mxCell>
        <mxCell id="xvR5ZBjjs4Vr0Vk9CWEH-9" value="Podcast URL: String" style="text;strokeColor=none;fillColor=none;align=left;verticalAlign=middle;spacingLeft=4;spacingRight=4;overflow=hidden;points=[[0,0.5],[1,0.5]];portConstraint=eastwest;rotatable=0;" parent="xvR5ZBjjs4Vr0Vk9CWEH-4" vertex="1">
          <mxGeometry y="150" width="190" height="30" as="geometry" />
        </mxCell>
        <mxCell id="xvR5ZBjjs4Vr0Vk9CWEH-10" value="podcast_repo()" style="text;strokeColor=default;fillColor=none;align=left;verticalAlign=middle;spacingLeft=4;spacingRight=4;overflow=hidden;points=[[0,0.5],[1,0.5]];portConstraint=eastwest;rotatable=0;" parent="xvR5ZBjjs4Vr0Vk9CWEH-4" vertex="1">
          <mxGeometry y="180" width="190" height="30" as="geometry" />
        </mxCell>
        <mxCell id="xvR5ZBjjs4Vr0Vk9CWEH-11" style="edgeStyle=orthogonalEdgeStyle;rounded=0;orthogonalLoop=1;jettySize=auto;html=1;entryX=0.004;entryY=0.059;entryDx=0;entryDy=0;entryPerimeter=0;endArrow=block;endFill=0;" parent="xvR5ZBjjs4Vr0Vk9CWEH-1" source="xvR5ZBjjs4Vr0Vk9CWEH-12" target="xvR5ZBjjs4Vr0Vk9CWEH-21" edge="1">
          <mxGeometry relative="1" as="geometry" />
        </mxCell>
        <mxCell id="xvR5ZBjjs4Vr0Vk9CWEH-12" value="Answers" style="swimlane;fontStyle=0;childLayout=stackLayout;horizontal=1;startSize=30;horizontalStack=0;resizeParent=1;resizeParentMax=0;resizeLast=0;collapsible=1;marginBottom=0;" parent="xvR5ZBjjs4Vr0Vk9CWEH-1" vertex="1">
          <mxGeometry x="40" y="320" width="190" height="180" as="geometry" />
        </mxCell>
        <mxCell id="xvR5ZBjjs4Vr0Vk9CWEH-13" value="User Id: Integer" style="text;strokeColor=none;fillColor=none;align=left;verticalAlign=middle;spacingLeft=4;spacingRight=4;overflow=hidden;points=[[0,0.5],[1,0.5]];portConstraint=eastwest;rotatable=0;" parent="xvR5ZBjjs4Vr0Vk9CWEH-12" vertex="1">
          <mxGeometry y="30" width="190" height="30" as="geometry" />
        </mxCell>
        <mxCell id="xvR5ZBjjs4Vr0Vk9CWEH-14" value="Answer ID: Integer" style="text;strokeColor=none;fillColor=none;align=left;verticalAlign=middle;spacingLeft=4;spacingRight=4;overflow=hidden;points=[[0,0.5],[1,0.5]];portConstraint=eastwest;rotatable=0;" parent="xvR5ZBjjs4Vr0Vk9CWEH-12" vertex="1">
          <mxGeometry y="60" width="190" height="30" as="geometry" />
        </mxCell>
        <mxCell id="xvR5ZBjjs4Vr0Vk9CWEH-15" value="Answer Description: String" style="text;strokeColor=none;fillColor=none;align=left;verticalAlign=middle;spacingLeft=4;spacingRight=4;overflow=hidden;points=[[0,0.5],[1,0.5]];portConstraint=eastwest;rotatable=0;" parent="xvR5ZBjjs4Vr0Vk9CWEH-12" vertex="1">
          <mxGeometry y="90" width="190" height="30" as="geometry" />
        </mxCell>
        <mxCell id="xvR5ZBjjs4Vr0Vk9CWEH-16" value="Attachment: String" style="text;strokeColor=none;fillColor=none;align=left;verticalAlign=middle;spacingLeft=4;spacingRight=4;overflow=hidden;points=[[0,0.5],[1,0.5]];portConstraint=eastwest;rotatable=0;" parent="xvR5ZBjjs4Vr0Vk9CWEH-12" vertex="1">
          <mxGeometry y="120" width="190" height="30" as="geometry" />
        </mxCell>
        <mxCell id="xvR5ZBjjs4Vr0Vk9CWEH-17" value="answer_repo()" style="text;strokeColor=default;fillColor=none;align=left;verticalAlign=middle;spacingLeft=4;spacingRight=4;overflow=hidden;points=[[0,0.5],[1,0.5]];portConstraint=eastwest;rotatable=0;" parent="xvR5ZBjjs4Vr0Vk9CWEH-12" vertex="1">
          <mxGeometry y="150" width="190" height="30" as="geometry" />
        </mxCell>
        <mxCell id="xvR5ZBjjs4Vr0Vk9CWEH-18" value="Reply" style="swimlane;fontStyle=0;childLayout=stackLayout;horizontal=1;startSize=30;horizontalStack=0;resizeParent=1;resizeParentMax=0;resizeLast=0;collapsible=1;marginBottom=0;" parent="xvR5ZBjjs4Vr0Vk9CWEH-1" vertex="1">
          <mxGeometry x="290" y="310" width="190" height="180" as="geometry" />
        </mxCell>
        <mxCell id="xvR5ZBjjs4Vr0Vk9CWEH-19" value="User Id: Integer" style="text;strokeColor=none;fillColor=none;align=left;verticalAlign=middle;spacingLeft=4;spacingRight=4;overflow=hidden;points=[[0,0.5],[1,0.5]];portConstraint=eastwest;rotatable=0;" parent="xvR5ZBjjs4Vr0Vk9CWEH-18" vertex="1">
          <mxGeometry y="30" width="190" height="30" as="geometry" />
        </mxCell>
        <mxCell id="xvR5ZBjjs4Vr0Vk9CWEH-20" value="Reply ID: Integer" style="text;strokeColor=none;fillColor=none;align=left;verticalAlign=middle;spacingLeft=4;spacingRight=4;overflow=hidden;points=[[0,0.5],[1,0.5]];portConstraint=eastwest;rotatable=0;" parent="xvR5ZBjjs4Vr0Vk9CWEH-18" vertex="1">
          <mxGeometry y="60" width="190" height="30" as="geometry" />
        </mxCell>
        <mxCell id="xvR5ZBjjs4Vr0Vk9CWEH-21" value="Reply Description: String" style="text;strokeColor=none;fillColor=none;align=left;verticalAlign=middle;spacingLeft=4;spacingRight=4;overflow=hidden;points=[[0,0.5],[1,0.5]];portConstraint=eastwest;rotatable=0;" parent="xvR5ZBjjs4Vr0Vk9CWEH-18" vertex="1">
          <mxGeometry y="90" width="190" height="30" as="geometry" />
        </mxCell>
        <mxCell id="xvR5ZBjjs4Vr0Vk9CWEH-22" value="Attachment: String" style="text;strokeColor=none;fillColor=none;align=left;verticalAlign=middle;spacingLeft=4;spacingRight=4;overflow=hidden;points=[[0,0.5],[1,0.5]];portConstraint=eastwest;rotatable=0;" parent="xvR5ZBjjs4Vr0Vk9CWEH-18" vertex="1">
          <mxGeometry y="120" width="190" height="30" as="geometry" />
        </mxCell>
        <mxCell id="xvR5ZBjjs4Vr0Vk9CWEH-23" value="reply_repo()" style="text;strokeColor=default;fillColor=none;align=left;verticalAlign=middle;spacingLeft=4;spacingRight=4;overflow=hidden;points=[[0,0.5],[1,0.5]];portConstraint=eastwest;rotatable=0;" parent="xvR5ZBjjs4Vr0Vk9CWEH-18" vertex="1">
          <mxGeometry y="150" width="190" height="30" as="geometry" />
        </mxCell>
        <mxCell id="xvR5ZBjjs4Vr0Vk9CWEH-24" value="Vote" style="swimlane;fontStyle=0;childLayout=stackLayout;horizontal=1;startSize=30;horizontalStack=0;resizeParent=1;resizeParentMax=0;resizeLast=0;collapsible=1;marginBottom=0;" parent="xvR5ZBjjs4Vr0Vk9CWEH-1" vertex="1">
          <mxGeometry x="290" y="98" width="190" height="120" as="geometry" />
        </mxCell>
        <mxCell id="xvR5ZBjjs4Vr0Vk9CWEH-25" value="User Id: Integer" style="text;strokeColor=none;fillColor=none;align=left;verticalAlign=middle;spacingLeft=4;spacingRight=4;overflow=hidden;points=[[0,0.5],[1,0.5]];portConstraint=eastwest;rotatable=0;" parent="xvR5ZBjjs4Vr0Vk9CWEH-24" vertex="1">
          <mxGeometry y="30" width="190" height="30" as="geometry" />
        </mxCell>
        <mxCell id="xvR5ZBjjs4Vr0Vk9CWEH-26" value="Vote Status: Boolean" style="text;strokeColor=none;fillColor=none;align=left;verticalAlign=middle;spacingLeft=4;spacingRight=4;overflow=hidden;points=[[0,0.5],[1,0.5]];portConstraint=eastwest;rotatable=0;" parent="xvR5ZBjjs4Vr0Vk9CWEH-24" vertex="1">
          <mxGeometry y="60" width="190" height="30" as="geometry" />
        </mxCell>
        <mxCell id="xvR5ZBjjs4Vr0Vk9CWEH-27" value="vote()" style="text;strokeColor=default;fillColor=none;align=left;verticalAlign=middle;spacingLeft=4;spacingRight=4;overflow=hidden;points=[[0,0.5],[1,0.5]];portConstraint=eastwest;rotatable=0;" parent="xvR5ZBjjs4Vr0Vk9CWEH-24" vertex="1">
          <mxGeometry y="90" width="190" height="30" as="geometry" />
        </mxCell>
        <mxCell id="xvR5ZBjjs4Vr0Vk9CWEH-28" value="Post Podcast" style="swimlane;fontStyle=0;childLayout=stackLayout;horizontal=1;startSize=30;horizontalStack=0;resizeParent=1;resizeParentMax=0;resizeLast=0;collapsible=1;marginBottom=0;" parent="xvR5ZBjjs4Vr0Vk9CWEH-1" vertex="1">
          <mxGeometry x="40" y="540" width="190" height="210" as="geometry" />
        </mxCell>
        <mxCell id="xvR5ZBjjs4Vr0Vk9CWEH-29" value="User Id: Integer" style="text;strokeColor=none;fillColor=none;align=left;verticalAlign=middle;spacingLeft=4;spacingRight=4;overflow=hidden;points=[[0,0.5],[1,0.5]];portConstraint=eastwest;rotatable=0;" parent="xvR5ZBjjs4Vr0Vk9CWEH-28" vertex="1">
          <mxGeometry y="30" width="190" height="30" as="geometry" />
        </mxCell>
        <mxCell id="xvR5ZBjjs4Vr0Vk9CWEH-30" value="Podcast ID: Integer" style="text;strokeColor=none;fillColor=none;align=left;verticalAlign=middle;spacingLeft=4;spacingRight=4;overflow=hidden;points=[[0,0.5],[1,0.5]];portConstraint=eastwest;rotatable=0;" parent="xvR5ZBjjs4Vr0Vk9CWEH-28" vertex="1">
          <mxGeometry y="60" width="190" height="30" as="geometry" />
        </mxCell>
        <mxCell id="xvR5ZBjjs4Vr0Vk9CWEH-31" value="Podcast Title: String" style="text;strokeColor=none;fillColor=none;align=left;verticalAlign=middle;spacingLeft=4;spacingRight=4;overflow=hidden;points=[[0,0.5],[1,0.5]];portConstraint=eastwest;rotatable=0;" parent="xvR5ZBjjs4Vr0Vk9CWEH-28" vertex="1">
          <mxGeometry y="90" width="190" height="30" as="geometry" />
        </mxCell>
        <mxCell id="xvR5ZBjjs4Vr0Vk9CWEH-32" value="Podcast Description: String" style="text;strokeColor=none;fillColor=none;align=left;verticalAlign=middle;spacingLeft=4;spacingRight=4;overflow=hidden;points=[[0,0.5],[1,0.5]];portConstraint=eastwest;rotatable=0;" parent="xvR5ZBjjs4Vr0Vk9CWEH-28" vertex="1">
          <mxGeometry y="120" width="190" height="30" as="geometry" />
        </mxCell>
        <mxCell id="xvR5ZBjjs4Vr0Vk9CWEH-33" value="Podcast URL: String" style="text;strokeColor=none;fillColor=none;align=left;verticalAlign=middle;spacingLeft=4;spacingRight=4;overflow=hidden;points=[[0,0.5],[1,0.5]];portConstraint=eastwest;rotatable=0;" parent="xvR5ZBjjs4Vr0Vk9CWEH-28" vertex="1">
          <mxGeometry y="150" width="190" height="30" as="geometry" />
        </mxCell>
        <mxCell id="xvR5ZBjjs4Vr0Vk9CWEH-34" value="post_podcast()" style="text;strokeColor=default;fillColor=none;align=left;verticalAlign=middle;spacingLeft=4;spacingRight=4;overflow=hidden;points=[[0,0.5],[1,0.5]];portConstraint=eastwest;rotatable=0;" parent="xvR5ZBjjs4Vr0Vk9CWEH-28" vertex="1">
          <mxGeometry y="180" width="190" height="30" as="geometry" />
        </mxCell>
      </root>
    </mxGraphModel>
  </diagram>
  <diagram id="ZDvBprxkZAvhWcVZ8y4a" name="CRITICAL DEBATING PLATFORM">
    <mxGraphModel dx="-498" dy="786" grid="1" gridSize="10" guides="1" tooltips="1" connect="1" arrows="1" fold="1" page="1" pageScale="1" pageWidth="1920" pageHeight="1200" math="0" shadow="0">
      <root>
        <mxCell id="BsQAP2SNTuMS-g8OIahV-0" />
        <mxCell id="BsQAP2SNTuMS-g8OIahV-1" parent="BsQAP2SNTuMS-g8OIahV-0" />
        <mxCell id="BsQAP2SNTuMS-g8OIahV-2" value="&lt;b&gt;CRITICAL DEBATING PLATFORM&lt;/b&gt;" style="text;html=1;resizable=0;autosize=1;align=left;verticalAlign=middle;points=[];fillColor=none;strokeColor=none;rounded=0;" parent="BsQAP2SNTuMS-g8OIahV-1" vertex="1">
          <mxGeometry x="1960" y="40" width="210" height="20" as="geometry" />
        </mxCell>
        <mxCell id="BsQAP2SNTuMS-g8OIahV-3" style="edgeStyle=orthogonalEdgeStyle;rounded=0;orthogonalLoop=1;jettySize=auto;html=1;entryX=0.011;entryY=-0.093;entryDx=0;entryDy=0;entryPerimeter=0;endArrow=block;endFill=0;" parent="BsQAP2SNTuMS-g8OIahV-1" source="BsQAP2SNTuMS-g8OIahV-5" target="BsQAP2SNTuMS-g8OIahV-22" edge="1">
          <mxGeometry relative="1" as="geometry" />
        </mxCell>
        <mxCell id="BsQAP2SNTuMS-g8OIahV-4" style="edgeStyle=orthogonalEdgeStyle;rounded=0;orthogonalLoop=1;jettySize=auto;html=1;entryX=-0.012;entryY=0.949;entryDx=0;entryDy=0;entryPerimeter=0;endArrow=block;endFill=0;" parent="BsQAP2SNTuMS-g8OIahV-1" source="BsQAP2SNTuMS-g8OIahV-5" target="BsQAP2SNTuMS-g8OIahV-13" edge="1">
          <mxGeometry relative="1" as="geometry" />
        </mxCell>
        <mxCell id="BsQAP2SNTuMS-g8OIahV-5" value="Debate Topic" style="swimlane;fontStyle=0;childLayout=stackLayout;horizontal=1;startSize=30;horizontalStack=0;resizeParent=1;resizeParentMax=0;resizeLast=0;collapsible=1;marginBottom=0;" parent="BsQAP2SNTuMS-g8OIahV-1" vertex="1">
          <mxGeometry x="1960" y="70" width="190" height="180" as="geometry" />
        </mxCell>
        <mxCell id="BsQAP2SNTuMS-g8OIahV-6" value="User Id: Integer" style="text;strokeColor=none;fillColor=none;align=left;verticalAlign=middle;spacingLeft=4;spacingRight=4;overflow=hidden;points=[[0,0.5],[1,0.5]];portConstraint=eastwest;rotatable=0;" parent="BsQAP2SNTuMS-g8OIahV-5" vertex="1">
          <mxGeometry y="30" width="190" height="30" as="geometry" />
        </mxCell>
        <mxCell id="BsQAP2SNTuMS-g8OIahV-7" value="D_Question ID: Integer" style="text;strokeColor=none;fillColor=none;align=left;verticalAlign=middle;spacingLeft=4;spacingRight=4;overflow=hidden;points=[[0,0.5],[1,0.5]];portConstraint=eastwest;rotatable=0;" parent="BsQAP2SNTuMS-g8OIahV-5" vertex="1">
          <mxGeometry y="60" width="190" height="30" as="geometry" />
        </mxCell>
        <mxCell id="BsQAP2SNTuMS-g8OIahV-8" value="D_Question Title: String" style="text;strokeColor=none;fillColor=none;align=left;verticalAlign=middle;spacingLeft=4;spacingRight=4;overflow=hidden;points=[[0,0.5],[1,0.5]];portConstraint=eastwest;rotatable=0;" parent="BsQAP2SNTuMS-g8OIahV-5" vertex="1">
          <mxGeometry y="90" width="190" height="30" as="geometry" />
        </mxCell>
        <mxCell id="BsQAP2SNTuMS-g8OIahV-9" value="D_Question Description: String" style="text;strokeColor=none;fillColor=none;align=left;verticalAlign=middle;spacingLeft=4;spacingRight=4;overflow=hidden;points=[[0,0.5],[1,0.5]];portConstraint=eastwest;rotatable=0;" parent="BsQAP2SNTuMS-g8OIahV-5" vertex="1">
          <mxGeometry y="120" width="190" height="30" as="geometry" />
        </mxCell>
        <mxCell id="BsQAP2SNTuMS-g8OIahV-10" value="debate_repo()" style="text;strokeColor=default;fillColor=none;align=left;verticalAlign=middle;spacingLeft=4;spacingRight=4;overflow=hidden;points=[[0,0.5],[1,0.5]];portConstraint=eastwest;rotatable=0;" parent="BsQAP2SNTuMS-g8OIahV-5" vertex="1">
          <mxGeometry y="150" width="190" height="30" as="geometry" />
        </mxCell>
        <mxCell id="BsQAP2SNTuMS-g8OIahV-11" value="Pro" style="swimlane;fontStyle=0;childLayout=stackLayout;horizontal=1;startSize=30;horizontalStack=0;resizeParent=1;resizeParentMax=0;resizeLast=0;collapsible=1;marginBottom=0;" parent="BsQAP2SNTuMS-g8OIahV-1" vertex="1">
          <mxGeometry x="2210" y="72" width="190" height="210" as="geometry" />
        </mxCell>
        <mxCell id="BsQAP2SNTuMS-g8OIahV-12" value="User Id: Integer" style="text;strokeColor=none;fillColor=none;align=left;verticalAlign=middle;spacingLeft=4;spacingRight=4;overflow=hidden;points=[[0,0.5],[1,0.5]];portConstraint=eastwest;rotatable=0;" parent="BsQAP2SNTuMS-g8OIahV-11" vertex="1">
          <mxGeometry y="30" width="190" height="30" as="geometry" />
        </mxCell>
        <mxCell id="BsQAP2SNTuMS-g8OIahV-13" value="D_Pro ID: Integer" style="text;strokeColor=none;fillColor=none;align=left;verticalAlign=middle;spacingLeft=4;spacingRight=4;overflow=hidden;points=[[0,0.5],[1,0.5]];portConstraint=eastwest;rotatable=0;" parent="BsQAP2SNTuMS-g8OIahV-11" vertex="1">
          <mxGeometry y="60" width="190" height="30" as="geometry" />
        </mxCell>
        <mxCell id="BsQAP2SNTuMS-g8OIahV-14" value="D_Pro Title: String" style="text;strokeColor=none;fillColor=none;align=left;verticalAlign=middle;spacingLeft=4;spacingRight=4;overflow=hidden;points=[[0,0.5],[1,0.5]];portConstraint=eastwest;rotatable=0;" parent="BsQAP2SNTuMS-g8OIahV-11" vertex="1">
          <mxGeometry y="90" width="190" height="30" as="geometry" />
        </mxCell>
        <mxCell id="BsQAP2SNTuMS-g8OIahV-15" value="D_Pro Description: String" style="text;strokeColor=none;fillColor=none;align=left;verticalAlign=middle;spacingLeft=4;spacingRight=4;overflow=hidden;points=[[0,0.5],[1,0.5]];portConstraint=eastwest;rotatable=0;" parent="BsQAP2SNTuMS-g8OIahV-11" vertex="1">
          <mxGeometry y="120" width="190" height="30" as="geometry" />
        </mxCell>
        <mxCell id="BsQAP2SNTuMS-g8OIahV-16" value="D_Pro Flag Status: Boolean" style="text;strokeColor=none;fillColor=none;align=left;verticalAlign=middle;spacingLeft=4;spacingRight=4;overflow=hidden;points=[[0,0.5],[1,0.5]];portConstraint=eastwest;rotatable=0;" parent="BsQAP2SNTuMS-g8OIahV-11" vertex="1">
          <mxGeometry y="150" width="190" height="30" as="geometry" />
        </mxCell>
        <mxCell id="BsQAP2SNTuMS-g8OIahV-17" value="debate_pro()" style="text;strokeColor=default;fillColor=none;align=left;verticalAlign=middle;spacingLeft=4;spacingRight=4;overflow=hidden;points=[[0,0.5],[1,0.5]];portConstraint=eastwest;rotatable=0;" parent="BsQAP2SNTuMS-g8OIahV-11" vertex="1">
          <mxGeometry y="180" width="190" height="30" as="geometry" />
        </mxCell>
        <mxCell id="BsQAP2SNTuMS-g8OIahV-18" value="Con" style="swimlane;fontStyle=0;childLayout=stackLayout;horizontal=1;startSize=30;horizontalStack=0;resizeParent=1;resizeParentMax=0;resizeLast=0;collapsible=1;marginBottom=0;" parent="BsQAP2SNTuMS-g8OIahV-1" vertex="1">
          <mxGeometry x="2210" y="305" width="190" height="210" as="geometry" />
        </mxCell>
        <mxCell id="BsQAP2SNTuMS-g8OIahV-19" value="User Id: Integer" style="text;strokeColor=none;fillColor=none;align=left;verticalAlign=middle;spacingLeft=4;spacingRight=4;overflow=hidden;points=[[0,0.5],[1,0.5]];portConstraint=eastwest;rotatable=0;" parent="BsQAP2SNTuMS-g8OIahV-18" vertex="1">
          <mxGeometry y="30" width="190" height="30" as="geometry" />
        </mxCell>
        <mxCell id="BsQAP2SNTuMS-g8OIahV-20" value="D_Con ID: Integer" style="text;strokeColor=none;fillColor=none;align=left;verticalAlign=middle;spacingLeft=4;spacingRight=4;overflow=hidden;points=[[0,0.5],[1,0.5]];portConstraint=eastwest;rotatable=0;" parent="BsQAP2SNTuMS-g8OIahV-18" vertex="1">
          <mxGeometry y="60" width="190" height="30" as="geometry" />
        </mxCell>
        <mxCell id="BsQAP2SNTuMS-g8OIahV-21" value="D_Con Title: String" style="text;strokeColor=none;fillColor=none;align=left;verticalAlign=middle;spacingLeft=4;spacingRight=4;overflow=hidden;points=[[0,0.5],[1,0.5]];portConstraint=eastwest;rotatable=0;" parent="BsQAP2SNTuMS-g8OIahV-18" vertex="1">
          <mxGeometry y="90" width="190" height="30" as="geometry" />
        </mxCell>
        <mxCell id="BsQAP2SNTuMS-g8OIahV-22" value="D_Con Description: String" style="text;strokeColor=none;fillColor=none;align=left;verticalAlign=middle;spacingLeft=4;spacingRight=4;overflow=hidden;points=[[0,0.5],[1,0.5]];portConstraint=eastwest;rotatable=0;" parent="BsQAP2SNTuMS-g8OIahV-18" vertex="1">
          <mxGeometry y="120" width="190" height="30" as="geometry" />
        </mxCell>
        <mxCell id="BsQAP2SNTuMS-g8OIahV-23" value="D_Con Flag Status: Boolean" style="text;strokeColor=none;fillColor=none;align=left;verticalAlign=middle;spacingLeft=4;spacingRight=4;overflow=hidden;points=[[0,0.5],[1,0.5]];portConstraint=eastwest;rotatable=0;" parent="BsQAP2SNTuMS-g8OIahV-18" vertex="1">
          <mxGeometry y="150" width="190" height="30" as="geometry" />
        </mxCell>
        <mxCell id="BsQAP2SNTuMS-g8OIahV-24" value="debate_pro()" style="text;strokeColor=default;fillColor=none;align=left;verticalAlign=middle;spacingLeft=4;spacingRight=4;overflow=hidden;points=[[0,0.5],[1,0.5]];portConstraint=eastwest;rotatable=0;" parent="BsQAP2SNTuMS-g8OIahV-18" vertex="1">
          <mxGeometry y="180" width="190" height="30" as="geometry" />
        </mxCell>
        <mxCell id="BsQAP2SNTuMS-g8OIahV-25" value="N" style="text;html=1;resizable=0;autosize=1;align=center;verticalAlign=middle;points=[];fillColor=none;strokeColor=none;rounded=0;" parent="BsQAP2SNTuMS-g8OIahV-1" vertex="1">
          <mxGeometry x="2190" y="134" width="20" height="20" as="geometry" />
        </mxCell>
        <mxCell id="BsQAP2SNTuMS-g8OIahV-26" value="1" style="text;html=1;resizable=0;autosize=1;align=center;verticalAlign=middle;points=[];fillColor=none;strokeColor=none;rounded=0;" parent="BsQAP2SNTuMS-g8OIahV-1" vertex="1">
          <mxGeometry x="2150" y="134" width="20" height="20" as="geometry" />
        </mxCell>
        <mxCell id="BsQAP2SNTuMS-g8OIahV-27" value="N" style="text;html=1;resizable=0;autosize=1;align=center;verticalAlign=middle;points=[];fillColor=none;strokeColor=none;rounded=0;" parent="BsQAP2SNTuMS-g8OIahV-1" vertex="1">
          <mxGeometry x="2180" y="400" width="20" height="20" as="geometry" />
        </mxCell>
        <mxCell id="BsQAP2SNTuMS-g8OIahV-28" value="1" style="text;html=1;resizable=0;autosize=1;align=center;verticalAlign=middle;points=[];fillColor=none;strokeColor=none;rounded=0;" parent="BsQAP2SNTuMS-g8OIahV-1" vertex="1">
          <mxGeometry x="2055" y="250" width="20" height="20" as="geometry" />
        </mxCell>
      </root>
    </mxGraphModel>
  </diagram>
</mxfile>
